<svg width="558" height="279" viewBox="0 0 558 279" fill="none" xmlns="http://www.w3.org/2000/svg">
<rect width="558" height="279" rx="8" fill="#F2F4F7"/>
<path d="M278.443 128.848C277.495 130.967 275.033 132.539 272.265 132.815V134.99C272.268 135.131 272.242 135.272 272.189 135.403C272.137 135.535 272.059 135.655 271.959 135.756C271.86 135.857 271.742 135.937 271.611 135.992C271.481 136.046 271.34 136.075 271.199 136.075C271.057 136.075 270.917 136.046 270.786 135.992C270.656 135.937 270.537 135.857 270.438 135.756C270.339 135.655 270.261 135.535 270.208 135.403C270.156 135.272 270.13 135.131 270.132 134.99V132.766C267.559 132.384 265.28 130.827 263.706 128.319C263.631 128.2 263.581 128.068 263.557 127.93C263.534 127.792 263.538 127.651 263.569 127.514C263.6 127.378 263.658 127.249 263.739 127.134C263.82 127.02 263.923 126.923 264.042 126.849C264.161 126.774 264.293 126.724 264.431 126.7C264.569 126.677 264.71 126.681 264.847 126.712C264.983 126.743 265.112 126.801 265.227 126.882C265.341 126.963 265.438 127.066 265.512 127.185C267.589 130.492 270.382 130.813 271.862 130.708C273.936 130.563 275.841 129.439 276.495 127.977C276.896 127.081 276.758 126.188 276.087 125.322C275.258 124.253 273.053 123.659 270.921 123.084C268.449 122.417 265.892 121.727 264.625 120.092C263.466 118.598 263.227 116.881 263.954 115.256C264.902 113.136 267.364 111.564 270.132 111.289V109.118C270.13 108.977 270.156 108.836 270.208 108.704C270.261 108.573 270.339 108.453 270.438 108.352C270.537 108.251 270.656 108.171 270.786 108.116C270.917 108.062 271.057 108.033 271.199 108.033C271.34 108.033 271.481 108.062 271.611 108.116C271.742 108.171 271.86 108.251 271.959 108.352C272.059 108.453 272.137 108.573 272.189 108.704C272.242 108.836 272.268 108.977 272.265 109.118V111.338C274.838 111.72 277.115 113.277 278.688 115.785C278.762 115.903 278.813 116.035 278.836 116.173C278.859 116.312 278.855 116.453 278.824 116.589C278.793 116.726 278.735 116.855 278.654 116.969C278.573 117.083 278.47 117.18 278.351 117.255C278.232 117.329 278.1 117.38 277.962 117.403C277.824 117.426 277.683 117.422 277.546 117.391C277.41 117.36 277.281 117.302 277.166 117.221C277.052 117.14 276.955 117.037 276.881 116.918C275.099 114.078 272.787 113.441 271.233 113.384C271.191 113.385 271.148 113.384 271.106 113.381C270.915 113.377 270.725 113.382 270.536 113.396C268.461 113.541 266.556 114.664 265.901 116.127C265.5 117.024 265.638 117.918 266.311 118.785C267.139 119.854 269.344 120.449 271.477 121.024C273.949 121.691 276.506 122.38 277.773 124.016C278.93 125.508 279.169 127.224 278.443 128.848ZM316.628 131.945V176.062C316.628 176.345 316.516 176.616 316.316 176.816C316.116 177.017 315.845 177.129 315.562 177.129H283.377C283.237 177.129 283.098 177.101 282.969 177.048C282.839 176.994 282.722 176.916 282.622 176.817C282.523 176.717 282.445 176.6 282.391 176.47C282.338 176.341 282.31 176.202 282.31 176.062V168.751H249.754C249.613 168.751 249.475 168.724 249.345 168.67C249.216 168.616 249.098 168.538 248.999 168.439C248.9 168.34 248.822 168.222 248.768 168.093C248.715 167.963 248.687 167.825 248.687 167.685V159.912H242.438C242.298 159.912 242.159 159.884 242.03 159.83C241.901 159.777 241.783 159.698 241.684 159.599C241.585 159.5 241.506 159.382 241.453 159.253C241.399 159.124 241.372 158.985 241.372 158.845V150.005C241.372 149.722 241.484 149.451 241.684 149.251C241.884 149.051 242.155 148.938 242.438 148.938H248.687V141.17C248.687 140.887 248.799 140.615 248.999 140.415C249.199 140.215 249.471 140.103 249.754 140.103H262.175C255.563 136.784 251.015 129.94 251.015 122.052C251.015 110.925 260.069 101.872 271.199 101.872C282.328 101.872 291.379 110.925 291.379 122.052C291.379 125.127 290.68 128.143 289.349 130.879H315.562C315.702 130.879 315.841 130.906 315.97 130.96C316.099 131.014 316.217 131.092 316.316 131.191C316.415 131.29 316.494 131.408 316.547 131.537C316.601 131.667 316.628 131.805 316.628 131.945ZM282.31 138.9C281.639 139.342 280.942 139.744 280.223 140.103H282.31V138.9ZM284.443 161.552H298.405V150.238H284.443V161.552ZM300.538 161.552H314.495V150.238H300.538V161.552ZM314.495 133.012H284.443V148.105H314.495V133.012ZM271.199 140.103C275.224 140.103 279.149 138.743 282.31 136.271V131.945C282.31 131.662 282.422 131.391 282.622 131.191C282.822 130.991 283.094 130.879 283.377 130.879H286.944C288.451 128.195 289.245 125.157 289.245 122.052C289.245 112.101 281.15 104.005 271.199 104.005C261.248 104.005 253.148 112.101 253.148 122.052C253.148 132.003 261.245 140.103 271.199 140.103ZM250.82 148.938H282.31V142.236H250.82L250.82 148.938ZM243.505 157.778H282.31V151.072H243.505V157.778H243.505ZM282.31 166.618V159.911H250.82V166.618H282.31H282.31ZM284.443 174.995H298.405V163.686H284.443V174.995ZM314.495 174.995V163.686H300.538V174.995H314.495ZM287.518 144.019V137.097C287.518 136.814 287.63 136.543 287.83 136.343C288.03 136.143 288.302 136.03 288.584 136.03H310.358C310.498 136.03 310.637 136.058 310.766 136.112C310.895 136.165 311.013 136.244 311.112 136.343C311.211 136.442 311.29 136.56 311.343 136.689C311.397 136.818 311.424 136.957 311.424 137.097V144.019C311.424 144.302 311.312 144.574 311.112 144.774C310.912 144.974 310.641 145.086 310.358 145.086H288.584C288.444 145.086 288.306 145.059 288.176 145.005C288.047 144.951 287.929 144.873 287.83 144.774C287.731 144.675 287.653 144.557 287.599 144.428C287.545 144.298 287.518 144.16 287.518 144.019ZM289.651 142.953H309.291V138.164H289.651V142.953ZM295.71 154.828H292.488V151.611C292.491 151.47 292.465 151.329 292.412 151.198C292.36 151.066 292.282 150.946 292.182 150.845C292.083 150.744 291.965 150.664 291.834 150.609C291.704 150.555 291.563 150.527 291.422 150.527C291.28 150.527 291.14 150.555 291.009 150.609C290.879 150.664 290.76 150.744 290.661 150.845C290.562 150.946 290.484 151.066 290.431 151.198C290.379 151.329 290.353 151.47 290.355 151.611V154.828H287.138C286.855 154.828 286.584 154.941 286.384 155.141C286.184 155.341 286.071 155.612 286.071 155.895C286.071 156.178 286.184 156.449 286.384 156.649C286.584 156.849 286.855 156.962 287.138 156.962H290.355V160.179C290.353 160.32 290.379 160.461 290.431 160.593C290.484 160.724 290.562 160.844 290.661 160.945C290.76 161.046 290.879 161.126 291.009 161.181C291.14 161.235 291.28 161.264 291.422 161.264C291.563 161.264 291.704 161.235 291.834 161.181C291.965 161.126 292.083 161.046 292.182 160.945C292.282 160.844 292.36 160.724 292.412 160.593C292.465 160.461 292.491 160.32 292.488 160.179V156.962H295.71C295.993 156.962 296.264 156.849 296.464 156.649C296.664 156.449 296.777 156.178 296.777 155.895C296.777 155.612 296.664 155.341 296.464 155.141C296.264 154.941 295.993 154.828 295.71 154.828ZM292.932 169.34L295.208 167.065C295.403 166.864 295.512 166.594 295.51 166.314C295.509 166.033 295.396 165.765 295.198 165.567C295 165.368 294.731 165.256 294.451 165.254C294.17 165.252 293.9 165.361 293.699 165.557L291.424 167.832L289.149 165.557C288.948 165.361 288.678 165.252 288.398 165.254C288.117 165.256 287.849 165.368 287.65 165.567C287.452 165.765 287.34 166.033 287.338 166.314C287.336 166.594 287.445 166.864 287.641 167.065L289.916 169.34L287.641 171.615C287.443 171.816 287.333 172.087 287.334 172.368C287.335 172.649 287.448 172.919 287.647 173.118C287.846 173.317 288.115 173.429 288.397 173.43C288.678 173.431 288.949 173.321 289.149 173.124L291.424 170.849L293.699 173.124C293.908 173.332 294.181 173.436 294.454 173.436C294.727 173.436 295 173.332 295.208 173.124C295.408 172.924 295.52 172.653 295.52 172.37C295.52 172.087 295.408 171.816 295.208 171.615L292.933 169.34H292.932ZM311.8 166.505H303.233C302.95 166.505 302.679 166.618 302.478 166.818C302.278 167.018 302.166 167.289 302.166 167.572C302.166 167.855 302.278 168.126 302.478 168.326C302.679 168.526 302.95 168.639 303.233 168.639H311.8C312.083 168.639 312.355 168.526 312.555 168.326C312.755 168.126 312.867 167.855 312.867 167.572C312.867 167.289 312.755 167.018 312.555 166.818C312.355 166.618 312.083 166.505 311.8 166.505ZM311.8 170.042H303.233C302.95 170.042 302.679 170.154 302.478 170.355C302.278 170.555 302.166 170.826 302.166 171.109C302.166 171.392 302.278 171.663 302.478 171.863C302.679 172.063 302.95 172.176 303.233 172.176H311.8C312.083 172.176 312.355 172.063 312.555 171.863C312.755 171.663 312.867 171.392 312.867 171.109C312.867 170.826 312.755 170.555 312.555 170.355C312.355 170.154 312.083 170.042 311.8 170.042ZM311.8 154.828H303.233C302.95 154.828 302.679 154.941 302.478 155.141C302.278 155.341 302.166 155.612 302.166 155.895C302.166 156.178 302.278 156.449 302.478 156.649C302.679 156.849 302.95 156.962 303.233 156.962H311.8C312.083 156.962 312.355 156.849 312.555 156.649C312.755 156.449 312.867 156.178 312.867 155.895C312.867 155.612 312.755 155.341 312.555 155.141C312.355 154.941 312.083 154.828 311.8 154.828ZM293.87 116.996C293.87 116.808 293.919 116.624 294.013 116.462C294.107 116.3 294.241 116.165 294.403 116.071L303.192 110.997C303.354 110.903 303.538 110.854 303.725 110.854C303.912 110.854 304.096 110.903 304.258 110.997C304.421 111.091 304.555 111.225 304.649 111.387C304.742 111.55 304.792 111.733 304.792 111.921V113.381C311.305 114.068 315.275 117.204 316.599 122.714C316.649 122.922 316.635 123.14 316.559 123.34C316.484 123.54 316.349 123.713 316.174 123.836C315.999 123.959 315.791 124.026 315.577 124.029C315.363 124.032 315.153 123.971 314.974 123.853C310.873 121.146 307.452 120.01 304.792 120.47V122.065C304.792 122.252 304.742 122.436 304.649 122.598C304.555 122.76 304.421 122.895 304.258 122.988C304.096 123.082 303.912 123.131 303.725 123.131C303.538 123.131 303.354 123.082 303.192 122.988L294.405 117.919C294.243 117.826 294.108 117.691 294.014 117.529C293.92 117.367 293.871 117.183 293.871 116.996H293.87ZM297.071 116.993L302.658 120.217V119.629C302.658 119.401 302.732 119.178 302.867 118.995C303.003 118.811 303.194 118.676 303.413 118.609C304.214 118.364 305.066 118.241 305.965 118.241C308.185 118.241 310.697 118.987 313.478 120.473C311.76 117.401 308.519 115.742 303.656 115.425C303.385 115.407 303.132 115.287 302.947 115.09C302.762 114.892 302.659 114.631 302.659 114.361V113.768L297.071 116.993H297.071Z" fill="#575757"/>
</svg>
