<svg width="132" height="20" viewBox="0 0 132 20" fill="none" xmlns="http://www.w3.org/2000/svg">
<rect width="20" height="20" fill="#00B67A"/>
<path d="M11.4092 8.33752L11.5178 8.69045H11.8871H16.5202L12.7529 11.5644L12.4758 11.7758L12.5783 12.109L14.0001 16.7289L10.2983 13.8958L9.99439 13.6633L9.69052 13.8958L5.99215 16.7262L7.42119 12.1098L7.52428 11.7767L7.24742 11.5648L3.4798 8.6815L8.11167 8.69045L8.48104 8.69116L8.59027 8.3383L10.004 3.77149L11.4092 8.33752Z" fill="white" stroke="white"/>
<rect width="20" height="20" transform="translate(28)" fill="#00B67A"/>
<path d="M39.4092 8.33752L39.5178 8.69045H39.8871H44.5202L40.7529 11.5644L40.4758 11.7758L40.5783 12.109L42.0001 16.7289L38.2983 13.8958L37.9944 13.6633L37.6905 13.8958L33.9921 16.7262L35.4212 12.1098L35.5243 11.7767L35.2474 11.5648L31.4798 8.6815L36.1117 8.69045L36.481 8.69116L36.5903 8.3383L38.004 3.77149L39.4092 8.33752Z" fill="white" stroke="white"/>
<rect width="20" height="20" transform="translate(56)" fill="#00B67A"/>
<path d="M67.4092 8.33752L67.5178 8.69045H67.8871H72.5202L68.7529 11.5644L68.4758 11.7758L68.5783 12.109L70.0001 16.7289L66.2983 13.8958L65.9944 13.6633L65.6905 13.8958L61.9921 16.7262L63.4212 12.1098L63.5243 11.7767L63.2474 11.5648L59.4798 8.6815L64.1117 8.69045L64.481 8.69116L64.5903 8.3383L66.004 3.77149L67.4092 8.33752Z" fill="white" stroke="white"/>
<rect width="20" height="20" transform="translate(84)" fill="#00B67A"/>
<path d="M95.4092 8.33752L95.5178 8.69045H95.8871H100.52L96.7529 11.5644L96.4758 11.7758L96.5783 12.109L98.0001 16.7289L94.2983 13.8958L93.9944 13.6633L93.6905 13.8958L89.9921 16.7262L91.4212 12.1098L91.5243 11.7767L91.2474 11.5648L87.4798 8.6815L92.1117 8.69045L92.481 8.69116L92.5903 8.3383L94.004 3.77149L95.4092 8.33752Z" fill="white" stroke="white"/>
<rect width="20" height="20" transform="translate(112)" fill="#00B67A"/>
<path d="M123.409 8.33752L123.518 8.69045H123.887H128.52L124.753 11.5644L124.476 11.7758L124.578 12.109L126 16.7289L122.298 13.8958L121.994 13.6633L121.691 13.8958L117.992 16.7262L119.421 12.1098L119.524 11.7767L119.247 11.5648L115.48 8.6815L120.112 8.69045L120.481 8.69116L120.59 8.3383L122.004 3.77149L123.409 8.33752Z" fill="white" stroke="white"/>
</svg>
