<svg width="75" height="74" viewBox="0 0 75 74" fill="none" xmlns="http://www.w3.org/2000/svg">
<rect x="0.666718" width="74" height="74" rx="37" fill="#EAECF0"/>
<path d="M51.0001 34.3333H24.3334M36.3334 39.6666H29.6667M24.3334 31.9333L24.3334 42.0666C24.3334 43.5601 24.3334 44.3068 24.624 44.8773C24.8797 45.379 25.2876 45.787 25.7894 46.0426C26.3598 46.3333 27.1066 46.3333 28.6001 46.3333L46.7334 46.3333C48.2269 46.3333 48.9736 46.3333 49.544 46.0426C50.0458 45.787 50.4537 45.379 50.7094 44.8773C51.0001 44.3068 51.0001 43.5601 51.0001 42.0666V31.9333C51.0001 30.4398 51.0001 29.6931 50.7094 29.1227C50.4537 28.6209 50.0458 28.2129 49.544 27.9573C48.9736 27.6666 48.2269 27.6666 46.7334 27.6666L28.6001 27.6666C27.1066 27.6666 26.3598 27.6666 25.7894 27.9573C25.2876 28.2129 24.8797 28.6209 24.624 29.1227C24.3334 29.6931 24.3334 30.4398 24.3334 31.9333Z" stroke="#6F7784" stroke-width="2" stroke-linecap="round" stroke-linejoin="round"/>
</svg>
