<svg width="374" height="198" viewBox="0 0 374 198" fill="none" xmlns="http://www.w3.org/2000/svg">
<rect x="0.666626" width="373.333" height="198" rx="6" fill="#F2F4F7"/>
<g clip-path="url(#clip0_8299_1805)">
<path d="M166.74 137.553H87.1976C86.9805 137.553 86.7723 137.467 86.6187 137.313C86.4652 137.159 86.3788 136.951 86.3785 136.734V59.1941C86.3788 58.9769 86.4652 58.7687 86.6187 58.6152C86.7723 58.4616 86.9805 58.3752 87.1976 58.375H166.74C166.957 58.3752 167.165 58.4616 167.319 58.6152C167.472 58.7687 167.559 58.9769 167.559 59.1941V136.734C167.559 136.951 167.472 137.159 167.319 137.313C167.165 137.467 166.957 137.553 166.74 137.553Z" fill="#F0F0F0"/>
<path d="M158.094 65.4736H95.8435C95.6264 65.474 95.4182 65.5604 95.2647 65.7139C95.1111 65.8674 95.0247 66.0756 95.0244 66.2927V114.528C95.0247 114.745 95.1111 114.953 95.2647 115.107C95.4182 115.26 95.6264 115.346 95.8435 115.347H158.094C158.311 115.346 158.519 115.26 158.673 115.107C158.826 114.953 158.913 114.745 158.913 114.528V66.2927C158.913 66.0756 158.826 65.8674 158.673 65.7139C158.519 65.5604 158.311 65.474 158.094 65.4736Z" fill="white"/>
<path d="M154.545 124.812H99.3929C99.2722 124.812 99.1566 124.764 99.0713 124.678C98.986 124.593 98.938 124.477 98.9378 124.357V121.809C98.938 121.688 98.986 121.572 99.0713 121.487C99.1566 121.402 99.2722 121.354 99.3929 121.354H154.545C154.665 121.354 154.781 121.402 154.866 121.487C154.951 121.572 154.999 121.688 155 121.809V124.357C154.999 124.477 154.951 124.593 154.866 124.678C154.781 124.764 154.665 124.812 154.545 124.812Z" fill="white"/>
<path d="M135.433 131H99.3929C99.2722 131 99.1566 130.952 99.0713 130.867C98.986 130.782 98.938 130.666 98.9378 130.545V127.997C98.938 127.876 98.986 127.761 99.0713 127.675C99.1566 127.59 99.2722 127.542 99.3929 127.542H135.433C135.553 127.542 135.669 127.59 135.754 127.675C135.84 127.761 135.888 127.876 135.888 127.997V130.545C135.888 130.666 135.84 130.782 135.754 130.867C135.669 130.952 135.553 131 135.433 131Z" fill="white"/>
<path d="M125.431 98.1588C129.802 98.1588 133.346 94.6152 133.346 90.244C133.346 85.8727 129.802 82.3291 125.431 82.3291C121.06 82.3291 117.516 85.8727 117.516 90.244C117.516 94.6152 121.06 98.1588 125.431 98.1588Z" fill="#FFB8B8"/>
<path d="M137.011 115.347H119.462L120.036 102.445L120.172 102.302L122.142 100.221H128.408L130.731 102.471L130.919 102.653L135.864 107.393L137.011 115.347Z" fill="#3684A4"/>
<path d="M122.48 115.347H109.204C109.171 112.435 109.153 110.691 109.153 110.691L109.921 110.223C109.922 110.222 109.923 110.221 109.924 110.221H109.926L118.387 105.085L120.163 102.2L120.172 102.302L120.695 108.383C120.695 108.383 121.557 111.171 122.48 115.347Z" fill="#2F2E41"/>
<path d="M144.794 115.347H130.731C130.944 106.854 129.797 102.2 130.387 102.2L130.731 102.471L134.876 105.744L140.338 107.748H140.342L144.108 109.129L144.768 109.371V109.683C144.77 110.429 144.774 112.469 144.794 115.347Z" fill="#2F2E41"/>
<path d="M117.943 92.7201C117.943 92.7201 118.615 91.5391 118.459 87.5939C118.303 83.6487 124.31 85.88 129.33 85.5037C134.35 85.1273 133.288 92.0903 133.288 92.0903C133.288 92.0903 133.65 91.6764 134.425 88.3159C135.201 84.9553 133.44 81.6064 133.44 81.6064C132.922 78.0751 130.127 79.2069 130.127 79.2069C131.473 79.7308 131.215 80.8509 131.215 80.8509C130.075 78.8537 127.281 79.9855 127.281 79.9855C123.554 77.6468 119.777 80.7266 119.777 80.7266C115.275 81.7484 117.915 85.3289 117.915 85.3289C113.387 87.6171 117.943 92.7201 117.943 92.7201Z" fill="#2F2E41"/>
<path d="M110.977 115.347H105.521C105.564 114.675 105.565 114.001 105.525 113.328C105.199 112.03 109.783 110.276 109.921 110.223C109.922 110.222 109.923 110.221 109.924 110.221H109.926L110.8 110.691L110.977 115.347Z" fill="#2F2E41"/>
<path d="M145.779 115.347H140.049L139.333 108.285L140.136 107.699C140.136 107.699 140.209 107.715 140.338 107.748H140.342C140.984 107.906 142.972 108.43 144.108 109.129C144.36 109.271 144.584 109.459 144.768 109.683C144.881 109.818 144.937 109.991 144.925 110.167C144.896 110.431 145.231 112.375 145.779 115.347Z" fill="#2F2E41"/>
<path d="M289.207 114.457H209.664C209.447 114.457 209.239 114.371 209.086 114.217C208.932 114.064 208.846 113.856 208.845 113.638V36.0984C208.846 35.8812 208.932 35.673 209.086 35.5195C209.239 35.3659 209.447 35.2795 209.664 35.2793H289.207C289.424 35.2795 289.632 35.3659 289.786 35.5195C289.939 35.673 290.026 35.8812 290.026 36.0984V113.638C290.025 113.856 289.939 114.064 289.786 114.217C289.632 114.371 289.424 114.457 289.207 114.457Z" fill="#F0F0F0"/>
<path d="M280.561 42.3784H218.31C218.093 42.3787 217.885 42.4651 217.732 42.6187C217.578 42.7722 217.492 42.9804 217.491 43.1975V91.4325C217.492 91.6496 217.578 91.8578 217.732 92.0113C217.885 92.1648 218.093 92.2512 218.31 92.2516H280.561C280.778 92.2512 280.986 92.1648 281.14 92.0113C281.293 91.8578 281.38 91.6496 281.38 91.4325V43.1975C281.38 42.9804 281.293 42.7722 281.14 42.6187C280.986 42.4651 280.778 42.3787 280.561 42.3784Z" fill="white"/>
<path d="M277.011 101.716H221.86C221.739 101.716 221.623 101.668 221.538 101.583C221.453 101.497 221.405 101.382 221.405 101.261V98.7129C221.405 98.5922 221.453 98.4766 221.538 98.3912C221.623 98.3059 221.739 98.258 221.86 98.2578H277.011C277.132 98.258 277.248 98.3059 277.333 98.3912C277.418 98.4766 277.466 98.5922 277.466 98.7129V101.261C277.466 101.382 277.418 101.497 277.333 101.583C277.248 101.668 277.132 101.716 277.011 101.716Z" fill="white"/>
<path d="M257.899 107.905H221.86C221.739 107.905 221.623 107.857 221.538 107.771C221.453 107.686 221.405 107.57 221.405 107.45V104.901C221.405 104.781 221.453 104.665 221.538 104.58C221.623 104.494 221.739 104.446 221.86 104.446H257.899C258.02 104.446 258.136 104.494 258.221 104.58C258.306 104.665 258.354 104.781 258.354 104.901V107.45C258.354 107.57 258.306 107.686 258.221 107.771C258.136 107.857 258.02 107.905 257.899 107.905Z" fill="white"/>
<path d="M264.758 92.2515C265.109 90.9865 265.382 89.8962 265.522 89.1245C265.566 88.8865 265.57 88.643 265.535 88.4037C265.011 84.6741 255.542 81.5215 254.328 81.132L254.035 77.8848L242.117 76.6016L240.608 80.7552L236.33 82.3588C236.175 82.416 236.028 82.4918 235.892 82.5845C235.533 82.8268 235.257 83.1732 235.101 83.5771C234.945 83.9809 234.917 84.4229 235.02 84.8434L236.842 92.2515L264.758 92.2515Z" fill="#3684A4"/>
<path d="M240.051 92.2512H230.802C231.134 90.1871 231.43 88.3615 231.623 87.2002C232.329 82.9737 235.409 82.6133 235.892 82.5842C235.93 82.5806 235.953 82.5806 235.955 82.5806H237.901L240.051 92.2512Z" fill="#3684A4"/>
<path d="M264.758 92.2515H267C266.802 90.4295 266.172 89.2027 265.535 88.4036C265.11 87.8418 264.561 87.3854 263.932 87.0694L263.762 86.9966L261.791 92.2515H264.758Z" fill="#3684A4"/>
<path d="M247.61 74.546C252.35 74.546 256.192 70.7039 256.192 65.9644C256.192 61.2249 252.35 57.3828 247.61 57.3828C242.871 57.3828 239.029 61.2249 239.029 65.9644C239.029 70.7039 242.871 74.546 247.61 74.546Z" fill="#A0616A"/>
<path d="M241.85 61.7836C242.739 62.835 244.242 63.1315 245.629 63.2521C248.445 63.4992 252.54 63.0985 255.293 62.4631C255.491 64.367 254.954 66.4199 256.075 67.9864C256.601 66.0902 256.906 64.1397 256.986 62.1736C257.02 61.3304 257.007 60.4581 256.664 59.6841C256.322 58.91 255.574 58.2529 254.714 58.2461C255.353 57.7612 256.102 57.4412 256.894 57.3142L254.17 55.9449L254.869 55.2265L249.936 54.9246L251.365 54.017C249.214 53.7216 247.037 53.6532 244.872 53.8129C243.867 53.8869 242.815 54.0284 242.001 54.6109C241.187 55.1935 240.716 56.351 241.222 57.2061C240.589 57.3101 239.993 57.5739 239.49 57.9727C238.988 58.3714 238.595 58.8919 238.35 59.4847C237.987 60.4053 238.02 61.4278 238.132 62.4089C238.318 63.9778 238.682 65.5204 239.219 67.0065" fill="#2F2E41"/>
<path d="M229.487 163.279H149.944C149.727 163.279 149.519 163.193 149.366 163.039C149.212 162.886 149.126 162.677 149.125 162.46V84.9202C149.126 84.703 149.212 84.4948 149.366 84.3412C149.519 84.1877 149.727 84.1013 149.944 84.1011H229.487C229.704 84.1013 229.912 84.1877 230.066 84.3412C230.219 84.4948 230.306 84.703 230.306 84.9202V162.46C230.306 162.677 230.219 162.886 230.066 163.039C229.912 163.193 229.704 163.279 229.487 163.279Z" fill="#E4E4E4"/>
<path d="M220.841 91.2002H158.59C158.373 91.2005 158.165 91.2869 158.012 91.4405C157.858 91.594 157.772 91.8021 157.771 92.0193V140.254C157.772 140.471 157.858 140.68 158.012 140.833C158.165 140.987 158.373 141.073 158.59 141.073H220.841C221.058 141.073 221.266 140.987 221.42 140.833C221.573 140.68 221.66 140.471 221.66 140.254V92.0193C221.66 91.8021 221.573 91.594 221.42 91.4405C221.266 91.2869 221.058 91.2005 220.841 91.2002Z" fill="white"/>
<path d="M217.291 150.538H162.14C162.019 150.538 161.903 150.49 161.818 150.405C161.733 150.319 161.685 150.204 161.685 150.083V147.535C161.685 147.414 161.733 147.298 161.818 147.213C161.903 147.128 162.019 147.08 162.14 147.08H217.291C217.412 147.08 217.528 147.128 217.613 147.213C217.698 147.298 217.746 147.414 217.746 147.535V150.083C217.746 150.204 217.698 150.319 217.613 150.405C217.528 150.49 217.412 150.538 217.291 150.538Z" fill="white"/>
<path d="M198.179 156.726H162.14C162.019 156.726 161.903 156.678 161.818 156.593C161.733 156.508 161.685 156.392 161.685 156.271V153.723C161.685 153.602 161.733 153.487 161.818 153.402C161.903 153.316 162.019 153.268 162.14 153.268H198.179C198.3 153.268 198.416 153.316 198.501 153.402C198.586 153.487 198.634 153.602 198.634 153.723V156.271C198.634 156.392 198.586 156.508 198.501 156.593C198.416 156.678 198.3 156.726 198.179 156.726Z" fill="white"/>
<path d="M195.841 141.073H183.312L184.093 129.355L188.613 130.398L193.008 128.707L193.125 128.663L193.132 128.66C193.134 128.663 193.135 128.667 193.136 128.671C193.205 128.949 194.585 134.473 195.841 141.073Z" fill="#3684A4"/>
<path d="M203.391 131.268L202.22 141.073H191.661L193.008 128.707L193.021 128.587L193.125 128.663L193.136 128.67L195.74 130.571L203.391 131.268Z" fill="#2F2E41"/>
<path d="M185.165 141.073H175.709L175.573 133.354L182.531 131.046L184.093 129.355C184.093 129.355 184.586 134.442 185.165 141.073Z" fill="#2F2E41"/>
<path d="M207.943 141.073H200.107L200.609 134.049L203.391 131.268C203.391 131.268 205.591 135.884 207.943 141.073Z" fill="#2F2E41"/>
<path d="M177.939 141.073H173.805C173.824 138.823 173.834 137.269 173.834 136.83C173.814 136.152 173.962 135.479 174.265 134.873C174.569 134.266 175.018 133.744 175.573 133.354L177.661 134.049L177.939 141.073Z" fill="#2F2E41"/>
<path d="M177.294 117.292C177.3 115.386 177.802 113.514 178.748 111.86C179.695 110.205 181.055 108.825 182.695 107.854C186.18 105.797 190.384 105.834 194.229 107.956C196.969 109.468 199.198 113.271 199.198 116.435V125.667H177.294V117.292Z" fill="#2F2E41"/>
<path d="M191.607 124.47C195.441 122.375 196.85 117.568 194.754 113.734C192.658 109.9 187.851 108.491 184.017 110.587C180.184 112.682 178.775 117.489 180.87 121.323C182.966 125.157 187.773 126.566 191.607 124.47Z" fill="#FFB8B8"/>
<path d="M179.562 117.603C179.502 117.534 179.362 117.372 180.338 109.863L180.369 109.74H180.457C185.403 107.307 190.422 107.246 195.374 109.557C195.527 109.63 195.658 109.741 195.755 109.879C195.851 110.017 195.911 110.178 195.927 110.346C196.505 117.401 196.365 117.555 196.305 117.62C196.214 117.72 196.104 117.799 195.981 117.854C195.858 117.908 195.725 117.937 195.59 117.937H193.396L193.35 117.854C192.973 117.154 192.56 116.474 192.111 115.817C191.905 116.471 191.737 117.136 191.606 117.808L191.579 117.937H180.292C180.154 117.937 180.017 117.907 179.891 117.849C179.765 117.792 179.653 117.708 179.562 117.603Z" fill="#2F2E41"/>
</g>
<defs>
<clipPath id="clip0_8299_1805">
<rect width="203.647" height="128" fill="white" transform="translate(86.3785 35.2793)"/>
</clipPath>
</defs>
</svg>
