<svg width="74" height="74" viewBox="0 0 74 74" fill="none" xmlns="http://www.w3.org/2000/svg">
<rect width="74" height="74" rx="37" fill="#EAECF0"/>
<path d="M35.6667 35.6667H29.2667C27.7732 35.6667 27.0265 35.6667 26.456 35.9573C25.9543 36.213 25.5463 36.6209 25.2907 37.1227C25 37.6931 25 38.4399 25 39.9333V49M49 49V29.2667C49 27.7732 49 27.0265 48.7094 26.456C48.4537 25.9543 48.0458 25.5463 47.544 25.2906C46.9736 25 46.2268 25 44.7334 25H39.9334C38.4399 25 37.6931 25 37.1227 25.2906C36.6209 25.5463 36.213 25.9543 35.9573 26.456C35.6667 27.0265 35.6667 27.7732 35.6667 29.2667V49M50.3334 49H23.6667M40.3334 30.3333H44.3334M40.3334 35.6667H44.3334M40.3334 41H44.3334" stroke="#6F7784" stroke-width="2" stroke-linecap="round" stroke-linejoin="round"/>
</svg>
