<svg width="56" height="57" viewBox="0 0 56 57" fill="none" xmlns="http://www.w3.org/2000/svg">
<rect x="-0.00500488" y="0.10498" width="56" height="56" rx="28" fill="#EAECF0"/>
<path d="M39.995 28.1051L23.995 28.1051M39.995 20.1051L23.995 20.1051M39.995 36.1051L23.995 36.1051M18.6617 28.1051C18.6617 28.8414 18.0647 29.4384 17.3283 29.4384C16.5919 29.4384 15.995 28.8414 15.995 28.1051C15.995 27.3687 16.5919 26.7717 17.3283 26.7717C18.0647 26.7717 18.6617 27.3687 18.6617 28.1051ZM18.6617 20.1051C18.6617 20.8414 18.0647 21.4384 17.3283 21.4384C16.5919 21.4384 15.995 20.8414 15.995 20.1051C15.995 19.3687 16.5919 18.7717 17.3283 18.7717C18.0647 18.7717 18.6617 19.3687 18.6617 20.1051ZM18.6617 36.1051C18.6617 36.8414 18.0647 37.4384 17.3283 37.4384C16.5919 37.4384 15.995 36.8414 15.995 36.1051C15.995 35.3687 16.5919 34.7717 17.3283 34.7717C18.0647 34.7717 18.6617 35.3687 18.6617 36.1051Z" stroke="#3684A4" stroke-width="2" stroke-linecap="round" stroke-linejoin="round"/>
</svg>
