<svg width="56" height="57" viewBox="0 0 56 57" fill="none" xmlns="http://www.w3.org/2000/svg">
<rect x="-0.00500488" y="0.10498" width="56" height="56" rx="28" fill="#EAECF0"/>
<path d="M14.6617 14.7717H16.4032C16.7313 14.7717 16.8953 14.7717 17.0273 14.832C17.1436 14.8852 17.2421 14.9707 17.3112 15.0783C17.3896 15.2005 17.4128 15.3628 17.4592 15.6875L18.0903 20.1051M18.0903 20.1051L19.4928 30.4136C19.6708 31.7218 19.7597 32.3758 20.0725 32.8682C20.3481 33.302 20.7431 33.647 21.2102 33.8616C21.7402 34.1051 22.4003 34.1051 23.7205 34.1051H35.131C36.3877 34.1051 37.0161 34.1051 37.5296 33.8789C37.9824 33.6796 38.3708 33.3582 38.6514 32.9507C38.9696 32.4885 39.0872 31.8713 39.3223 30.6367L41.0872 21.3713C41.1699 20.9368 41.2113 20.7195 41.1513 20.5497C41.0987 20.4008 40.9949 20.2753 40.8584 20.1958C40.7028 20.1051 40.4817 20.1051 40.0393 20.1051H18.0903ZM25.3283 40.1051C25.3283 40.8414 24.7314 41.4384 23.995 41.4384C23.2586 41.4384 22.6617 40.8414 22.6617 40.1051C22.6617 39.3687 23.2586 38.7717 23.995 38.7717C24.7314 38.7717 25.3283 39.3687 25.3283 40.1051ZM35.995 40.1051C35.995 40.8414 35.3981 41.4384 34.6617 41.4384C33.9253 41.4384 33.3283 40.8414 33.3283 40.1051C33.3283 39.3687 33.9253 38.7717 34.6617 38.7717C35.3981 38.7717 35.995 39.3687 35.995 40.1051Z" stroke="#3684A4" stroke-width="2" stroke-linecap="round" stroke-linejoin="round"/>
</svg>
