<svg width="75" height="74" viewBox="0 0 75 74" fill="none" xmlns="http://www.w3.org/2000/svg">
<rect x="0.333374" width="74" height="74" rx="37" fill="#EAECF0"/>
<path d="M33.6174 40.3333C34.0336 41.126 34.8648 41.6667 35.8223 41.6667H38.6667C40.1395 41.6667 41.3334 40.4728 41.3334 39C41.3334 37.5272 40.1395 36.3333 38.6667 36.3333H36.0001C34.5273 36.3333 33.3334 35.1394 33.3334 33.6667C33.3334 32.1939 34.5273 31 36.0001 31H38.8445C39.802 31 40.6332 31.5406 41.0495 32.3333M37.3334 29V31M37.3334 41.6667V43.6667M48.0001 37C48.0001 43.5446 40.8615 48.3045 38.2641 49.8198C37.9689 49.992 37.8213 50.0781 37.613 50.1228C37.4513 50.1575 37.2155 50.1575 37.0538 50.1228C36.8455 50.0781 36.6979 49.992 36.4028 49.8198C33.8054 48.3045 26.6667 43.5446 26.6667 37V30.6235C26.6667 29.5574 26.6667 29.0244 26.8411 28.5663C26.9951 28.1615 27.2454 27.8004 27.5703 27.514C27.9381 27.1899 28.4371 27.0028 29.4353 26.6285L36.5844 23.9476C36.8615 23.8436 37.0001 23.7916 37.1427 23.771C37.2692 23.7528 37.3976 23.7528 37.5241 23.771C37.6667 23.7916 37.8053 23.8436 38.0825 23.9476L45.2315 26.6285C46.2297 27.0028 46.7288 27.1899 47.0965 27.514C47.4214 27.8004 47.6717 28.1615 47.8257 28.5663C48.0001 29.0244 48.0001 29.5574 48.0001 30.6235V37Z" stroke="#6F7784" stroke-width="2" stroke-linecap="round" stroke-linejoin="round"/>
</svg>
