<svg width="365" height="198" viewBox="0 0 365 198" fill="none" xmlns="http://www.w3.org/2000/svg">
<rect x="0.666626" width="364" height="198" rx="6" fill="#F2F4F7"/>
<g clip-path="url(#clip0_8299_1663)">
<path d="M108.403 161.704C108.403 161.89 108.553 162.04 108.74 162.04H256.593C256.78 162.04 256.93 161.89 256.93 161.704C256.93 161.517 256.78 161.367 256.593 161.367H108.74C108.553 161.367 108.403 161.517 108.403 161.704Z" fill="#3F3C57"/>
<path d="M156.644 48.603L158.252 55.94L154.832 66.1523L149.322 55.18L150.086 48.8145L156.644 48.603Z" fill="#FDB4B4"/>
<path d="M158.55 55.5601H149.036V67.0549H158.55V55.5601Z" fill="#3684A4"/>
<path d="M154.638 52.2989C158.226 52.2989 161.135 49.39 161.135 45.8018C161.135 42.2135 158.226 39.3047 154.638 39.3047C151.05 39.3047 148.141 42.2135 148.141 45.8018C148.141 49.39 151.05 52.2989 154.638 52.2989Z" fill="#FDB4B4"/>
<path d="M148.983 50.6331C148.983 50.6331 144.14 41.689 148.506 37.3848C152.873 33.0807 156.378 35.9169 156.378 35.9169L158.38 35.836C158.38 35.836 158.797 37.4112 159.47 36.5584C160.143 35.7057 161.36 38.8113 161.36 38.8113C163.617 42.8772 155.791 43.788 155.791 43.788C155.791 43.788 156.356 45.5883 155.782 45.9653C155.207 46.3423 153.673 47.7606 153.673 47.7606L152.299 48.7981L151.482 47.5542C151.482 47.5542 150.63 46.8811 150.199 47.1639C149.768 47.4466 150.361 51.1671 150.361 51.1671L148.983 50.6331Z" fill="#2E2E41"/>
<path d="M141.188 116.434L138.704 153.487L144.811 153.694L152.884 116.744L141.188 116.434Z" fill="#2E2E41"/>
<path d="M155.989 116.227L153.505 153.28L159.612 153.487L167.685 116.537L155.989 116.227Z" fill="#2E2E41"/>
<path d="M139.693 124.899L142.944 84.5431L137.958 63.5288C137.529 60.405 139.497 57.4493 142.534 56.6433L147.413 55.3491L149.572 53.1899L154.483 64.0351L157.55 53.1982L159.942 54.9379L167.036 58.0679L167.033 58.1411L165.895 83.5263L168.435 124.54L168.323 124.541L139.693 124.899Z" fill="#E8E9EA"/>
<path d="M159.219 153.066L160.987 158.344C160.987 158.344 167.905 159.285 168.012 161.426C168.12 163.568 158.611 162.328 153.043 162.608C147.475 162.888 152.11 156.858 152.11 156.858L152.704 153.393L159.219 153.066Z" fill="#2E2E41"/>
<path d="M144.78 152.686L146.548 157.964C146.548 157.964 153.465 158.905 153.573 161.046C153.681 163.188 144.172 161.948 138.604 162.228C133.036 162.508 137.671 156.478 137.671 156.478L138.264 153.013L144.78 152.686Z" fill="#2E2E41"/>
<path d="M136.153 103.466C136.078 102.425 136.254 101.382 136.665 100.423L135.345 89.5974L140.515 89.1201L141.296 100.153C141.816 101.057 142.111 102.073 142.158 103.115C142.31 105.722 141.089 107.912 139.431 108.009C137.772 108.106 136.305 106.072 136.153 103.466Z" fill="#FDB4B4"/>
<path d="M168.895 105.055C168.831 104.014 169.018 102.972 169.439 102.018L168.238 91.1787L173.412 90.7578L174.074 101.798C174.583 102.708 174.867 103.727 174.903 104.77C175.026 107.378 173.781 109.555 172.122 109.634C170.463 109.712 169.018 107.663 168.895 105.055Z" fill="#FDB4B4"/>
<path d="M135.324 99.1251L135.306 99.0317L132.612 84.5765L135.796 61.0377C136.08 58.9362 137.956 57.4223 140.072 57.5915C141.177 57.68 142.169 58.2041 142.864 59.0676C143.56 59.931 143.861 61.0115 143.712 62.1101L141.316 79.7639L142.824 98.6463L135.324 99.1251Z" fill="#E8E9EA"/>
<path d="M167.298 98.7854L161.881 62.6292C161.599 61.569 161.764 60.4595 162.347 59.5167C162.931 58.5739 163.85 57.931 164.935 57.7065C167.012 57.2769 169.064 58.5466 169.606 60.5966L174.809 98.3314L167.298 98.7854Z" fill="#E8E9EA"/>
<path d="M154.642 67.3397C155.009 67.3397 155.307 67.042 155.307 66.6748C155.307 66.3075 155.009 66.0098 154.642 66.0098C154.274 66.0098 153.977 66.3075 153.977 66.6748C153.977 67.042 154.274 67.3397 154.642 67.3397Z" fill="#D6D7D8"/>
<path d="M154.642 72.3749C155.009 72.3749 155.307 72.0772 155.307 71.7099C155.307 71.3427 155.009 71.0449 154.642 71.0449C154.274 71.0449 153.977 71.3427 153.977 71.7099C153.977 72.0772 154.274 72.3749 154.642 72.3749Z" fill="#D6D7D8"/>
<path d="M154.642 77.4096C155.009 77.4096 155.307 77.1118 155.307 76.7446C155.307 76.3773 155.009 76.0796 154.642 76.0796C154.274 76.0796 153.977 76.3773 153.977 76.7446C153.977 77.1118 154.274 77.4096 154.642 77.4096Z" fill="#D6D7D8"/>
<path d="M154.642 82.4447C155.009 82.4447 155.307 82.147 155.307 81.7797C155.307 81.4125 155.009 81.1147 154.642 81.1147C154.274 81.1147 153.977 81.4125 153.977 81.7797C153.977 82.147 154.274 82.4447 154.642 82.4447Z" fill="#D6D7D8"/>
<path d="M154.642 87.4794C155.009 87.4794 155.307 87.1817 155.307 86.8144C155.307 86.4471 155.009 86.1494 154.642 86.1494C154.274 86.1494 153.977 86.4471 153.977 86.8144C153.977 87.1817 154.274 87.4794 154.642 87.4794Z" fill="#D6D7D8"/>
<path d="M154.642 92.5145C155.009 92.5145 155.307 92.2168 155.307 91.8496C155.307 91.4823 155.009 91.1846 154.642 91.1846C154.274 91.1846 153.977 91.4823 153.977 91.8496C153.977 92.2168 154.274 92.5145 154.642 92.5145Z" fill="#D6D7D8"/>
<path d="M154.642 97.5492C155.009 97.5492 155.307 97.2515 155.307 96.8842C155.307 96.517 155.009 96.2192 154.642 96.2192C154.274 96.2192 153.977 96.517 153.977 96.8842C153.977 97.2515 154.274 97.5492 154.642 97.5492Z" fill="#D6D7D8"/>
<path d="M154.642 102.584C155.009 102.584 155.307 102.287 155.307 101.919C155.307 101.552 155.009 101.254 154.642 101.254C154.274 101.254 153.977 101.552 153.977 101.919C153.977 102.287 154.274 102.584 154.642 102.584Z" fill="#D6D7D8"/>
<path d="M154.642 106.479L142.06 104.803L141.818 104.77L135.387 89.943L131.558 81.1152H141.533L154.642 106.479Z" fill="#3684A4"/>
<path d="M205.091 50.2163L213.09 45.834V58.355H203.839L205.091 50.2163Z" fill="#2E2E41"/>
<path d="M214.806 53.0079L215.544 59.155L210.223 69.7508L206.92 59.8889L208.473 52.8037L214.806 53.0079Z" fill="#FDB4B4"/>
<path d="M215.819 59.5225H206.631V70.6228H215.819V59.5225Z" fill="#3684A4"/>
<path d="M223.398 118.307L225.796 154.088L219.899 154.288L212.103 118.606L223.398 118.307Z" fill="#2E2E41"/>
<path d="M209.105 118.106L211.504 153.888L205.607 154.088L197.811 118.406L209.105 118.106Z" fill="#2E2E41"/>
<path d="M229.628 125.896L229.488 125.896L191.921 125.773L191.955 125.64L201.613 87.3736L199.194 68.062C198.735 64.4027 200.694 60.9439 204.068 59.4554L205.286 58.918L207.6 57.2352L210.561 67.6956L215.301 57.2271L217.389 59.3151L222.099 60.5646C225.035 61.3434 226.936 64.1995 226.523 67.2081L226.518 67.229L219.326 87.7514L229.628 125.896Z" fill="#E8E9EA"/>
<path d="M205.986 153.682L212.278 153.998L212.851 157.344C212.851 157.344 217.327 163.167 211.95 162.896C206.573 162.626 197.39 163.823 197.494 161.755C197.598 159.687 204.278 158.779 204.278 158.779L205.986 153.682Z" fill="#2E2E41"/>
<path d="M219.93 153.314L226.222 153.631L226.795 156.977C226.795 156.977 231.271 162.8 225.894 162.529C220.517 162.259 211.334 163.456 211.438 161.388C211.542 159.32 218.222 158.412 218.222 158.412L219.93 153.314Z" fill="#2E2E41"/>
<path d="M225.692 105.418C225.545 107.934 224.128 109.898 222.527 109.805C220.925 109.711 219.746 107.596 219.893 105.079C219.938 104.072 220.223 103.091 220.725 102.218L221.48 91.564L226.472 92.0249L225.198 102.479C225.595 103.405 225.764 104.413 225.692 105.418Z" fill="#FDB4B4"/>
<path d="M200.039 104.461C199.839 106.973 198.38 108.907 196.781 108.779C195.182 108.652 194.048 106.512 194.249 103.998C194.315 102.993 194.621 102.019 195.141 101.156L196.123 90.5205L201.104 91.0876L199.607 101.512C199.984 102.446 200.132 103.457 200.039 104.461Z" fill="#FDB4B4"/>
<path d="M226.496 101.229L219.246 100.766L219.255 100.658L220.703 82.5285L218.389 65.4809C218.245 64.4191 218.536 63.3746 219.208 62.5401C219.88 61.7054 220.839 61.1988 221.907 61.1132C223.952 60.952 225.766 62.4131 226.041 64.4443L229.115 87.176L229.112 87.193L226.496 101.229Z" fill="#E8E9EA"/>
<path d="M201.246 100.535L193.984 100.096L194 99.9812L199.007 63.6643C199.534 61.6697 201.517 60.4429 203.524 60.8579C204.574 61.0749 205.462 61.6963 206.026 62.6077C206.589 63.5191 206.749 64.5914 206.474 65.6273L201.246 100.535Z" fill="#E8E9EA"/>
<path d="M210.406 70.8976C210.761 70.8976 211.049 70.6101 211.049 70.2555C211.049 69.9008 210.761 69.6133 210.406 69.6133C210.052 69.6133 209.764 69.9008 209.764 70.2555C209.764 70.6101 210.052 70.8976 210.406 70.8976Z" fill="#D6D7D8"/>
<path d="M210.406 75.7599C210.761 75.7599 211.048 75.4724 211.048 75.1178C211.048 74.7631 210.761 74.4756 210.406 74.4756C210.052 74.4756 209.764 74.7631 209.764 75.1178C209.764 75.4724 210.052 75.7599 210.406 75.7599Z" fill="#D6D7D8"/>
<path d="M210.406 80.6222C210.761 80.6222 211.049 80.3347 211.049 79.9801C211.049 79.6254 210.761 79.3379 210.406 79.3379C210.052 79.3379 209.764 79.6254 209.764 79.9801C209.764 80.3347 210.052 80.6222 210.406 80.6222Z" fill="#D6D7D8"/>
<path d="M210.406 85.484C210.761 85.484 211.049 85.1965 211.049 84.8419C211.049 84.4872 210.761 84.1997 210.406 84.1997C210.052 84.1997 209.764 84.4872 209.764 84.8419C209.764 85.1965 210.052 85.484 210.406 85.484Z" fill="#D6D7D8"/>
<path d="M210.406 90.3464C210.761 90.3464 211.048 90.0588 211.048 89.7042C211.048 89.3495 210.761 89.062 210.406 89.062C210.052 89.062 209.764 89.3495 209.764 89.7042C209.764 90.0588 210.052 90.3464 210.406 90.3464Z" fill="#D6D7D8"/>
<path d="M210.406 95.2087C210.761 95.2087 211.049 94.9211 211.049 94.5665C211.049 94.2118 210.761 93.9243 210.406 93.9243C210.052 93.9243 209.764 94.2118 209.764 94.5665C209.764 94.9211 210.052 95.2087 210.406 95.2087Z" fill="#D6D7D8"/>
<path d="M210.406 100.07C210.761 100.07 211.049 99.783 211.049 99.4283C211.049 99.0736 210.761 98.7861 210.406 98.7861C210.052 98.7861 209.764 99.0736 209.764 99.4283C209.764 99.783 210.052 100.07 210.406 100.07Z" fill="#D6D7D8"/>
<path d="M210.406 104.933C210.761 104.933 211.049 104.645 211.049 104.291C211.049 103.936 210.761 103.648 210.406 103.648C210.052 103.648 209.764 103.936 209.764 104.291C209.764 104.645 210.052 104.933 210.406 104.933Z" fill="#D6D7D8"/>
<path d="M211.381 56.1454C214.698 56.1454 217.388 53.4562 217.388 50.1389C217.388 46.8215 214.698 44.1323 211.381 44.1323C208.064 44.1323 205.375 46.8215 205.375 50.1389C205.375 53.4562 208.064 56.1454 211.381 56.1454Z" fill="#FDB4B4"/>
<path d="M214.529 43.1269C214.817 43.7123 214.36 44.4435 213.756 44.6896C213.152 44.9357 212.47 44.836 211.826 44.7336C211.181 44.6311 210.498 44.534 209.896 44.7845C209.116 45.1085 208.677 45.9215 208.298 46.6759C207.592 48.0842 206.885 49.4925 206.178 50.9008C205.833 51.5889 205.48 52.3079 205.473 53.0778C205.461 54.4908 206.582 55.6201 207.185 56.898C207.92 58.454 207.859 60.3608 207.027 61.8671C206.196 63.3733 204.615 64.4405 202.907 64.6481C202.457 64.7027 201.982 64.6968 201.578 64.4926C201.173 64.2885 200.865 63.8426 200.94 63.3962C201.086 62.5229 202.421 62.3189 202.666 61.4681C202.794 61.0239 202.567 60.5496 202.262 60.2027C201.956 59.8558 201.57 59.5852 201.279 59.2264C200.607 58.3989 200.562 57.1217 201.174 56.2493C201.534 55.7365 202.091 55.3556 202.323 54.774C202.521 54.2783 202.449 53.7211 202.374 53.1925C202.278 52.5133 202.181 51.8341 202.085 51.1549C201.972 50.3625 201.862 49.5416 202.084 48.7728C202.594 47.0108 204.583 46.1833 205.75 44.7681C206.292 44.1104 206.657 43.3195 207.213 42.6737C208.146 41.5899 209.616 40.992 211.041 41.1163C212.465 41.2406 213.809 42.0838 214.541 43.3128" fill="#2E2E41"/>
<path d="M213.58 43.2378C213.287 43.3427 213.178 43.725 213.262 44.0249C213.347 44.3249 213.568 44.5633 213.77 44.8002C216.06 47.48 216.593 51.5334 215.072 54.7135C214.668 55.5594 214.129 56.3554 213.911 57.2673C213.752 57.9307 213.761 58.6585 213.393 59.2329C213.018 59.8177 212.275 60.2095 212.202 60.9001C212.155 61.3434 212.425 61.7739 212.787 62.0337C213.149 62.2936 213.592 62.4125 214.027 62.5094C215.157 62.7614 216.314 62.8989 217.472 62.9193C217.849 62.9259 218.239 62.9178 218.585 62.7673C218.932 62.6168 219.228 62.2905 219.232 61.9128C219.235 61.616 219.063 61.3422 219.042 61.0462C218.976 60.1591 220.17 59.6872 220.402 58.8287C220.555 58.2643 220.254 57.6835 219.933 57.1947C219.612 56.7058 219.246 56.1925 219.254 55.6078C219.261 55.048 219.613 54.5551 219.749 54.0122C219.938 53.2612 219.706 52.4758 219.476 51.7364C219.28 51.1078 219.085 50.4793 218.889 49.8507C218.681 49.1825 218.473 48.5143 218.265 47.8461C217.902 46.6796 217.521 45.4793 216.736 44.5436C215.95 43.608 214.648 42.9948 213.488 43.3768" fill="#2E2E41"/>
<path d="M217.673 66.5134L217.261 66.3935C218.119 63.4526 216.27 57.9645 216.251 57.9094L216.657 57.771C216.735 58.0012 218.568 63.4438 217.673 66.5134Z" fill="#3F3C57"/>
<path d="M217.467 69.8922C218.456 69.8922 219.258 69.0902 219.258 68.1009C219.258 67.1116 218.456 66.3096 217.467 66.3096C216.478 66.3096 215.676 67.1116 215.676 68.1009C215.676 69.0902 216.478 69.8922 217.467 69.8922Z" fill="#3F3C57"/>
<path d="M205.697 74.4423H204.611C204.492 74.4423 204.396 74.3463 204.396 74.2279C204.396 74.1095 204.492 74.0135 204.611 74.0135H205.697C205.996 74.0135 206.278 73.8969 206.489 73.6849C206.7 73.4731 206.817 73.1916 206.816 72.8924L206.803 66.201C206.803 64.7473 205.621 63.5651 204.167 63.5651C202.714 63.5651 201.532 64.7473 201.532 66.2006L201.545 72.4637C201.546 73.0748 202.044 73.5756 202.655 73.5804L203.401 73.586C203.519 73.5869 203.615 73.6836 203.614 73.8021C203.613 73.9199 203.517 74.0149 203.399 74.0149H203.398L202.652 74.0092C201.807 74.0027 201.118 73.3097 201.116 72.4646L201.103 66.201C201.103 64.5109 202.478 63.1362 204.167 63.1362C205.857 63.1362 207.232 64.5109 207.232 66.2006L207.245 72.8915C207.246 73.3055 207.085 73.6949 206.793 73.9878C206.5 74.2809 206.111 74.4423 205.697 74.4423Z" fill="#3F3C57"/>
<path d="M203.399 74.5605C203.819 74.5605 204.159 74.2202 204.159 73.8005C204.159 73.3808 203.819 73.0405 203.399 73.0405C202.98 73.0405 202.639 73.3808 202.639 73.8005C202.639 74.2202 202.98 74.5605 203.399 74.5605Z" fill="#3F3C57"/>
<path d="M204.611 74.9878C205.031 74.9878 205.371 74.6475 205.371 74.2278C205.371 73.808 205.031 73.4678 204.611 73.4678C204.191 73.4678 203.851 73.808 203.851 74.2278C203.851 74.6475 204.191 74.9878 204.611 74.9878Z" fill="#3F3C57"/>
<path d="M160.738 63.2989L160.326 63.1789C161.184 60.238 159.355 54.6649 159.336 54.6099L159.851 54.9978C159.93 55.228 161.633 60.2292 160.738 63.2989Z" fill="#3F3C57"/>
<path d="M146.267 63.8213L146.678 63.7013C145.821 60.7605 147.67 55.2724 147.689 55.2173L147.248 55.5123C147.17 55.7425 145.371 60.7517 146.267 63.8213Z" fill="#3F3C57"/>
<path d="M160.532 66.6769C161.521 66.6769 162.323 65.8749 162.323 64.8855C162.323 63.8962 161.521 63.0942 160.532 63.0942C159.542 63.0942 158.74 63.8962 158.74 64.8855C158.74 65.8749 159.542 66.6769 160.532 66.6769Z" fill="#3F3C57"/>
<path d="M148.176 74.8374H147.09C146.971 74.8374 146.875 74.7413 146.875 74.6229C146.875 74.5045 146.971 74.4085 147.09 74.4085H148.176C148.475 74.4085 148.757 74.2919 148.968 74.08C149.179 73.8682 149.296 73.5866 149.295 73.2874L149.282 66.596C149.282 65.1424 148.1 63.9601 146.646 63.9601C145.193 63.9601 144.011 65.1424 144.011 66.5956L144.024 72.8588C144.025 73.4698 144.523 73.9707 145.134 73.9754L145.88 73.981C145.998 73.982 146.094 74.0786 146.093 74.1971C146.092 74.3149 145.996 74.4099 145.878 74.4099H145.877L145.131 74.4042C144.286 74.3977 143.597 73.7047 143.595 72.8596L143.582 66.596C143.582 64.9059 144.956 63.5312 146.646 63.5312C148.336 63.5312 149.711 64.9059 149.711 66.5956L149.724 73.2866C149.725 73.7005 149.564 74.0899 149.272 74.3829C148.979 74.6759 148.59 74.8374 148.176 74.8374Z" fill="#3F3C57"/>
<path d="M145.878 74.9555C146.298 74.9555 146.638 74.6153 146.638 74.1955C146.638 73.7758 146.298 73.4355 145.878 73.4355C145.459 73.4355 145.118 73.7758 145.118 74.1955C145.118 74.6153 145.459 74.9555 145.878 74.9555Z" fill="#3F3C57"/>
<path d="M147.09 75.3833C147.509 75.3833 147.85 75.043 147.85 74.6233C147.85 74.2035 147.509 73.8633 147.09 73.8633C146.67 73.8633 146.33 74.2035 146.33 74.6233C146.33 75.043 146.67 75.3833 147.09 75.3833Z" fill="#3F3C57"/>
</g>
<defs>
<clipPath id="clip0_8299_1663">
<rect width="148.527" height="128" fill="white" transform="translate(108.403 35)"/>
</clipPath>
</defs>
</svg>
