<svg width="28" height="20" viewBox="0 0 28 20" fill="none" xmlns="http://www.w3.org/2000/svg">
<path d="M26.8252 3.49485C26.6723 2.92416 26.3718 2.4035 25.9539 1.98489C25.536 1.56628 25.0152 1.26437 24.4436 1.10937C22.3544 0.546852 13.9246 0.546875 13.9246 0.546875C13.9246 0.546875 5.56793 0.546852 3.41609 1.10937C2.84449 1.26437 2.3237 1.56628 1.90576 1.98489C1.48782 2.4035 1.18733 2.92416 1.0344 3.49485C0.282233 7.79582 0.282233 12.1942 1.0344 16.4952C1.1867 17.0673 1.48678 17.5896 1.90468 18.01C2.32258 18.4304 2.84371 18.7342 3.41609 18.891C5.50526 19.4536 13.9246 19.4536 13.9246 19.4536C13.9246 19.4536 22.344 19.4536 24.4436 18.891C25.016 18.7342 25.5371 18.4304 25.955 18.01C26.3729 17.5896 26.6729 17.0673 26.8252 16.4952C27.5633 12.193 27.5633 7.79702 26.8252 3.49485ZM11.1564 13.9847V6.00533L18.1865 9.99499L11.1564 13.9847Z" fill="white"/>
</svg>
