<svg width="24" height="20" viewBox="0 0 24 20" fill="none" xmlns="http://www.w3.org/2000/svg">
<path d="M0.978271 17.1724C3.04297 18.4939 5.43247 19.2235 7.88519 19.2812C10.3379 19.3389 12.7593 18.7225 14.8842 17.4995C17.0091 16.2765 18.7555 14.4941 19.9324 12.3473C21.1093 10.2006 21.6712 7.77231 21.5566 5.32837C22.4774 4.66381 23.2731 3.84209 23.9069 2.90122C23.0473 3.28129 22.1353 3.53063 21.2014 3.64084C22.1898 3.0571 22.9322 2.1354 23.2906 1.04701C22.3664 1.59152 21.3562 1.9755 20.3031 2.18248C19.5924 1.43436 18.6549 0.940005 17.6348 0.775553C16.6147 0.611101 15.5686 0.785651 14.6578 1.27237C13.747 1.75908 13.0219 2.53095 12.5942 3.46905C12.1666 4.40714 12.0601 5.45942 12.2911 6.46381C10.4204 6.37115 8.59013 5.88632 6.91986 5.04093C5.24958 4.19554 3.77675 3.00859 2.59736 1.55746C1.99731 2.58812 1.81345 3.80799 2.08317 4.96902C2.35289 6.13005 3.05595 7.14507 4.04935 7.8076C3.31632 7.78179 2.60007 7.5818 1.96018 7.22426C1.94586 8.31705 2.31486 9.38048 3.00343 10.2307C3.69199 11.081 4.65682 11.6646 5.73112 11.8806C5.05087 12.0711 4.33528 12.0996 3.64195 11.9639C3.9405 12.8961 4.52406 13.7116 5.31084 14.2964C6.09761 14.8811 7.04817 15.2056 8.02922 15.2244C7.04415 16.0026 5.91265 16.5759 4.70158 16.9105C3.49051 17.2451 2.22445 17.3341 0.978271 17.1724Z" fill="white"/>
</svg>
