<svg width="87" height="88" viewBox="0 0 87 88" fill="none" xmlns="http://www.w3.org/2000/svg">
<path d="M86.5 44C86.5 68.0298 67.2429 87.5 43.5 87.5C19.7571 87.5 0.5 68.0298 0.5 44C0.5 19.9702 19.7571 0.5 43.5 0.5C67.2429 0.5 86.5 19.9702 86.5 44Z" fill="white" stroke="#D0D5DD"/>
<path fill-rule="evenodd" clip-rule="evenodd" d="M38.6164 39.6698L42.4273 36.2227C43.3037 35.4314 44.3418 34.8403 45.4694 34.4901C46.5971 34.14 47.7874 34.0394 48.9579 34.1951L54.001 34.8628L60.9984 31.0818C61.1018 31.0258 61.218 30.9977 61.3355 31.0001C61.4531 31.0026 61.5679 31.0355 61.6689 31.0957C61.7699 31.1559 61.8535 31.2413 61.9116 31.3436C61.9696 31.4458 62.0001 31.5614 62 31.6789V44.5392C61.9999 44.9708 61.897 45.3961 61.6996 45.7798C61.5023 46.1636 61.2163 46.4948 60.8654 46.7459L56.1534 50.1144L51.0506 45.8367C52.0459 45.4788 52.9438 44.8932 53.6726 44.1267C53.8275 43.9663 53.9492 43.7769 54.0309 43.5695C54.1126 43.362 54.1527 43.1405 54.1488 42.9176C54.1449 42.6946 54.0971 42.4746 54.0082 42.2702C53.9192 42.0657 53.7909 41.8808 53.6305 41.7259C53.4701 41.571 53.2808 41.4492 53.0733 41.3675C52.8659 41.2858 52.6443 41.2458 52.4214 41.2497C52.1985 41.2536 51.9785 41.3014 51.774 41.3903C51.5695 41.4792 51.3846 41.6075 51.2297 41.7679C50.7303 42.2945 50.1404 42.6257 49.46 42.7614C48.8656 42.8781 48.1083 42.8591 47.1556 42.5659L45.945 41.5481L42.5657 44.2868C41.9493 44.775 41.1676 45.0053 40.3849 44.9294C39.6022 44.8535 38.8794 44.4772 38.3683 43.8796C37.8571 43.2821 37.5974 42.5097 37.6437 41.7247C37.69 40.9397 38.0386 40.2032 38.6164 39.6698ZM36.3419 37.1509L39.0779 34.6782C37.9011 34.3604 36.6694 34.3021 35.4679 34.5072L30.4871 35.3704L25.0206 32.4281C24.915 32.3712 24.7965 32.3427 24.6766 32.3454C24.5568 32.3481 24.4396 32.3819 24.3367 32.4434C24.2338 32.505 24.1487 32.5922 24.0897 32.6966C24.0307 32.801 23.9997 32.9189 24 33.0388V44.5365C24 45.4539 24.4533 46.3117 25.2106 46.8274L40.017 56.9218C40.9525 57.5607 42.0615 57.8973 43.1944 57.8862C44.3272 57.875 45.4294 57.5166 46.3521 56.8594L53.1541 52.0307L45.907 45.9507L44.6991 46.9224C43.396 47.9697 41.7362 48.4686 40.0716 48.3132C38.4069 48.1579 36.8682 47.3606 35.7813 46.0902C34.6944 44.8198 34.1448 43.1762 34.2489 41.5075C34.3531 39.8389 35.1055 38.2763 36.3419 37.1509Z" fill="#344054"/>
</svg>
