<svg width="75" height="74" viewBox="0 0 75 74" fill="none" xmlns="http://www.w3.org/2000/svg">
<rect x="0.333374" width="74" height="74" rx="37" fill="#EAECF0"/>
<path d="M39.3727 32.1358C38.6094 32.6799 37.6754 33 36.6667 33C34.0893 33 32 30.9106 32 28.3333C32 25.756 34.0893 23.6666 36.6667 23.6666C38.3373 23.6666 39.8029 24.5445 40.6273 25.8641M29.3333 47.7828H32.8137C33.2675 47.7828 33.7185 47.8368 34.1584 47.9448L37.8359 48.8385C38.6338 49.0329 39.465 49.0518 40.2713 48.8952L44.3373 48.1041C45.4114 47.8949 46.3994 47.3806 47.1738 46.6273L50.0505 43.8289C50.872 43.0311 50.872 41.7365 50.0505 40.9374C49.3109 40.2179 48.1396 40.1369 47.3028 40.747L43.9501 43.1931C43.47 43.5441 42.8858 43.7331 42.2849 43.7331H39.0473L41.1081 43.733C42.2696 43.733 43.2105 42.8177 43.2105 41.6878V41.2788C43.2105 40.3406 42.5541 39.5226 41.6188 39.2958L38.4381 38.5223C37.9205 38.3967 37.3904 38.3333 36.8575 38.3333C35.5711 38.3333 33.2425 39.3984 33.2425 39.3984L29.3333 41.0331M48 29.6666C48 32.244 45.9107 34.3333 43.3333 34.3333C40.756 34.3333 38.6667 32.244 38.6667 29.6666C38.6667 27.0893 40.756 25 43.3333 25C45.9107 25 48 27.0893 48 29.6666ZM24 40.4666L24 48.2C24 48.9467 24 49.3201 24.1453 49.6053C24.2732 49.8562 24.4771 50.0601 24.728 50.188C25.0132 50.3333 25.3866 50.3333 26.1333 50.3333H27.2C27.9467 50.3333 28.3201 50.3333 28.6053 50.188C28.8562 50.0601 29.0602 49.8562 29.188 49.6053C29.3333 49.3201 29.3333 48.9467 29.3333 48.2V40.4666C29.3333 39.7199 29.3333 39.3465 29.188 39.0613C29.0602 38.8104 28.8562 38.6065 28.6053 38.4786C28.3201 38.3333 27.9467 38.3333 27.2 38.3333L26.1333 38.3333C25.3866 38.3333 25.0132 38.3333 24.728 38.4786C24.4771 38.6064 24.2732 38.8104 24.1453 39.0613C24 39.3465 24 39.7199 24 40.4666Z" stroke="#6F7784" stroke-width="2" stroke-linecap="round" stroke-linejoin="round"/>
</svg>
