<svg width="155" height="31" viewBox="0 0 155 31" fill="none" xmlns="http://www.w3.org/2000/svg">
<path d="M58.8511 0.0106544C58.7768 0.0106544 58.7025 0.0106544 58.6282 0.0106544C55.4336 0.220201 53.6506 2.73476 53.8735 6.6463C54.0221 9.44025 55.285 12.3739 57.0681 14.6091C57.8853 15.5869 58.8511 16.4251 59.8912 17.0538C59.594 17.6824 59.2968 18.3809 58.9254 19.0095C56.9938 22.7115 52.3133 28.9281 43.4725 29.417C39.3865 29.6266 35.8204 28.4391 32.923 25.9944C39.7579 21.3146 43.6954 13.6312 43.5468 8.18297C43.3982 3.43324 40.5008 0.569445 35.5233 0.359898C31.9572 0.220201 29.1341 1.68703 27.2768 4.62068C24.2308 9.44025 24.8251 17.4729 28.5398 23.2703C29.1341 24.2482 29.8027 25.0864 30.5457 25.8547C27.8711 27.3914 24.8251 28.509 21.4077 28.7884C6.62349 29.9758 1.49731 0.848837 1.42302 0.569443C1.34872 0.220198 0.977262 -0.0591946 0.6058 0.0106544C0.234338 0.0805035 -0.062832 0.429747 0.0114604 0.77899C0.0114604 0.848839 1.34872 8.46236 4.61759 15.7965C8.92655 25.715 14.7957 30.6743 21.5563 30.1854C25.3452 29.906 28.6883 28.6487 31.5857 26.9025C34.7803 29.7663 38.8664 31.0934 43.4725 30.8838C50.6046 30.4647 56.548 26.5532 60.1883 19.708C60.4855 19.0794 60.857 18.4508 61.0799 17.8221C62.3428 18.3809 63.6801 18.5904 65.0916 18.5206C69.5492 18.3111 73.1152 15.2377 75.4183 9.57994C76.7556 6.3669 77.3499 3.2237 77.4985 1.89657H153.945C154.391 1.89657 154.688 1.61718 154.688 1.19808C154.688 0.77899 154.391 0.499594 153.945 0.499594H76.3098L76.2355 1.12823C76.2355 1.26793 74.4525 16.6347 65.0916 17.0538C63.8287 17.1236 62.7143 16.8442 61.6742 16.4251C63.7544 10.7674 63.9773 4.62068 61.8971 1.68703C61.0799 0.569447 60.0398 0.0106544 58.8511 0.0106544ZM60.4112 15.7266C57.3652 13.701 55.5079 9.6498 55.3593 6.57645C55.285 5.38902 55.285 1.61718 58.7025 1.40763C59.5197 1.33778 60.1141 1.68703 60.7084 2.45536C62.2685 4.76038 62.4171 10.2086 60.4112 15.7266ZM31.8829 25.0864C31.14 24.3181 30.4714 23.4799 29.877 22.5718C26.3853 17.1935 25.8652 9.78949 28.614 5.38901C29.6541 3.71264 31.7343 1.68703 35.5233 1.82672C41.0952 2.03627 42.061 5.9478 42.1353 8.25282C42.2096 13.4216 38.3464 20.6859 31.8829 25.0864Z" fill="#0E0E0E"/>
</svg>
