<svg width="24" height="24" viewBox="0 0 24 24" fill="none" xmlns="http://www.w3.org/2000/svg">
<path d="M12.1722 2.31727C15.3059 2.31727 15.6924 2.31728 16.9355 2.37978C17.6844 2.39171 18.4259 2.52904 19.1291 2.78604C19.6419 2.9773 20.1057 3.27971 20.487 3.67147C20.8799 4.04565 21.1803 4.50565 21.3645 5.01526C21.6274 5.71511 21.7653 6.45548 21.7719 7.2028C21.8346 8.44241 21.845 8.81743 21.845 11.9633C21.845 15.1092 21.845 15.4738 21.7719 16.7134C21.7653 17.4608 21.6274 18.2011 21.3645 18.901C21.1803 19.4106 20.8799 19.8706 20.487 20.2448C20.1057 20.6365 19.6419 20.939 19.1291 21.1302C18.4259 21.3872 17.6844 21.5246 16.9355 21.5365C15.6924 21.5365 15.3268 21.599 12.1722 21.599C9.01754 21.599 8.65194 21.599 7.40888 21.5365C6.6599 21.5257 5.91812 21.3884 5.21522 21.1302C4.70241 20.939 4.23861 20.6365 3.85727 20.2448C3.46786 19.8678 3.16801 19.4086 2.97979 18.901C2.71688 18.2011 2.57904 17.4608 2.57245 16.7134C2.50978 15.4738 2.49932 15.0988 2.49932 11.9633C2.49932 8.82785 2.49933 8.44241 2.57245 7.2028C2.57904 6.45548 2.71688 5.71511 2.97979 5.01526C3.16801 4.50763 3.46786 4.04846 3.85727 3.67147C4.23861 3.27971 4.70241 2.9773 5.21522 2.78604C5.91812 2.52788 6.6599 2.39052 7.40888 2.37978C8.65194 2.37978 9.01754 2.31727 12.1722 2.31727ZM12.1722 0.233887C8.96531 0.233887 8.56833 0.233894 7.30439 0.306813C6.32625 0.322451 5.3581 0.505684 4.44223 0.848496C3.65531 1.1478 2.94262 1.61331 2.35306 2.21311C1.75006 2.79772 1.28606 3.50961 0.995117 4.29649C0.65227 5.21046 0.465114 6.17517 0.441457 7.15071C0.389227 8.40074 0.378784 8.80701 0.378784 12.005C0.378784 15.203 0.378782 15.5988 0.441457 16.8489C0.465114 17.8244 0.65227 18.7891 0.995117 19.7031C1.28606 20.49 1.75006 21.2019 2.35306 21.7865C2.94262 22.3863 3.65531 22.8518 4.44223 23.1511C5.3581 23.4939 6.32625 23.6771 7.30439 23.6928C8.56833 23.7553 8.96531 23.7657 12.1722 23.7657C15.3791 23.7657 15.776 23.7657 17.0399 23.6928C18.0181 23.6771 18.9862 23.4939 19.9021 23.1511C20.689 22.8518 21.4017 22.3863 21.9912 21.7865C22.5942 21.2019 23.0582 20.49 23.3492 19.7031C23.692 18.7891 23.8792 17.8244 23.9029 16.8489C23.9029 15.5988 23.9655 15.1926 23.9655 12.005C23.9655 8.81742 23.9655 8.40074 23.9029 7.15071C23.8792 6.17517 23.692 5.21046 23.3492 4.29649C23.0582 3.50961 22.5942 2.79772 21.9912 2.21311C21.4017 1.61331 20.689 1.1478 19.9021 0.848496C18.9862 0.505684 18.0181 0.322451 17.0399 0.306813C15.776 0.244311 15.3791 0.233887 12.1722 0.233887Z" fill="white"/>
<path d="M12.1717 5.91992C10.9735 5.91992 9.80204 6.27427 8.80571 6.93815C7.80938 7.60203 7.03286 8.54563 6.5743 9.64962C6.11574 10.7536 5.99574 11.9684 6.22951 13.1404C6.46328 14.3124 7.04031 15.389 7.88762 16.2339C8.73493 17.0789 9.8145 17.6543 10.9898 17.8874C12.165 18.1206 13.3832 18.0009 14.4902 17.5436C15.5973 17.0863 16.5435 16.3119 17.2092 15.3184C17.875 14.3248 18.2303 13.1567 18.2303 11.9617C18.2303 10.3593 17.592 8.82258 16.4558 7.68952C15.3196 6.55646 13.7786 5.91992 12.1717 5.91992ZM12.1717 15.8785C11.392 15.8805 10.6291 15.6517 9.97991 15.221C9.3307 14.7902 8.82429 14.177 8.52493 13.459C8.22557 12.741 8.14672 11.9505 8.29834 11.1877C8.44996 10.425 8.82527 9.72425 9.37665 9.1744C9.92803 8.62454 10.6307 8.2503 11.3956 8.0991C12.1604 7.9479 12.9531 8.02655 13.6731 8.32508C14.3931 8.62361 15.0081 9.12859 15.44 9.776C15.8719 10.4234 16.1014 11.1841 16.0993 11.9617C16.0993 13.0005 15.6855 13.9968 14.949 14.7313C14.2124 15.4658 13.2134 15.8785 12.1717 15.8785Z" fill="white"/>
<path d="M19.8809 5.6809C19.8809 5.96154 19.7974 6.23584 19.6408 6.46903C19.4842 6.70223 19.2617 6.88381 19.0015 6.99072C18.7413 7.09763 18.4552 7.12507 18.1793 7.06956C17.9035 7.01405 17.6503 6.87808 17.4521 6.67891C17.2538 6.47974 17.1193 6.22634 17.0657 5.95084C17.0121 5.67535 17.0417 5.39017 17.1509 5.13149C17.26 4.87281 17.4437 4.65228 17.6786 4.49787C17.9136 4.34346 18.1893 4.26213 18.4708 4.2642C18.6568 4.26419 18.841 4.3009 19.0128 4.37222C19.1846 4.44354 19.3405 4.54806 19.4716 4.67976C19.6027 4.81145 19.7064 4.96771 19.7766 5.13953C19.8469 5.31135 19.8823 5.49535 19.8809 5.6809Z" fill="white"/>
</svg>
