<svg width="374" height="198" viewBox="0 0 374 198" fill="none" xmlns="http://www.w3.org/2000/svg">
<rect x="0.333374" width="373.333" height="198" rx="6" fill="#F2F4F7"/>
<g clip-path="url(#clip0_8299_450)">
<path d="M271.828 72.5093H173.997C172.62 72.5105 171.3 73.0581 170.326 74.0319C169.352 75.0056 168.805 76.326 168.803 77.703V93.5577C168.805 94.9348 169.352 96.2551 170.326 97.2289C171.3 98.2026 172.62 98.7502 173.997 98.7515H271.828C273.205 98.7502 274.525 98.2026 275.499 97.2289C276.473 96.2551 277.021 94.9348 277.022 93.5577V77.703C277.021 76.326 276.473 75.0056 275.499 74.0319C274.525 73.0581 273.205 72.5105 271.828 72.5093Z" fill="#F2F2F2"/>
<path d="M137.566 163H98.6447C98.5622 163 98.483 162.967 98.4246 162.909C98.3662 162.851 98.3334 162.771 98.3334 162.689C98.3334 162.606 98.3662 162.527 98.4246 162.469C98.483 162.41 98.5622 162.377 98.6447 162.377H137.566C137.649 162.377 137.728 162.41 137.786 162.469C137.845 162.527 137.878 162.606 137.878 162.689C137.878 162.771 137.845 162.851 137.786 162.909C137.728 162.967 137.649 163 137.566 163Z" fill="#3F3D56"/>
<path d="M131.851 65.5078C131.49 65.7357 131.184 66.0399 130.953 66.399C130.723 66.7582 130.573 67.1635 130.516 67.5865C130.459 68.0095 130.496 68.4399 130.623 68.8473C130.75 69.2548 130.965 69.6293 131.253 69.9447L128.423 75.987L131.676 78.6021L135.552 70.013C136.05 69.4946 136.34 68.8117 136.368 68.0936C136.396 67.3754 136.159 66.6721 135.703 66.1167C135.247 65.5614 134.603 65.1927 133.893 65.0805C133.183 64.9682 132.457 65.1203 131.851 65.5078Z" fill="#FFB8B8"/>
<path d="M115.591 67.9599C116.487 67.422 117.555 67.2494 118.574 67.4779C119.593 67.7064 120.486 68.3185 121.066 69.1872L126.856 77.8565L128.866 73.4252C128.991 73.1485 129.214 72.9272 129.491 72.803C129.768 72.6788 130.081 72.6603 130.371 72.7509L133.405 73.6986C133.564 73.7481 133.711 73.8288 133.838 73.9359C133.964 74.0431 134.069 74.1745 134.144 74.3225C134.219 74.4705 134.264 74.632 134.276 74.7977C134.288 74.9633 134.267 75.1296 134.214 75.2869L132.137 81.4191C131.874 82.1948 131.435 82.8991 130.855 83.4767C130.274 84.0542 129.567 84.4893 128.79 84.7477C128.013 85.0062 127.186 85.0811 126.376 84.9664C125.565 84.8517 124.791 84.5507 124.116 84.0868C123.801 83.8701 123.51 83.6198 123.248 83.3404L114.716 74.2237C114.302 73.7809 113.992 73.2511 113.809 72.6731C113.625 72.095 113.574 71.4834 113.658 70.8828C113.742 70.2823 113.959 69.7081 114.293 69.2024C114.628 68.6966 115.071 68.2721 115.591 67.9599Z" fill="#CCCCCC"/>
<path d="M134.321 59.0021C134.476 59.006 134.624 59.0714 134.731 59.184C134.838 59.2967 134.896 59.4472 134.892 59.6026L134.842 61.6149L134.943 61.6241L134.907 62.9909L134.809 62.9786L134.63 70.1876C134.623 70.4343 134.528 70.6704 134.36 70.8517C134.193 71.0331 133.965 71.1474 133.72 71.1732L129.136 71.6558C129.024 71.6676 128.911 71.6547 128.805 71.6183C128.699 71.5818 128.602 71.5226 128.521 71.4447C128.441 71.3669 128.378 71.2723 128.337 71.1676C128.297 71.0629 128.28 70.9506 128.288 70.8386L128.983 60.5735C128.997 60.3579 129.085 60.1537 129.231 59.9944C129.377 59.8351 129.573 59.7303 129.786 59.6971L134.212 59.0097C134.248 59.0037 134.284 59.0012 134.321 59.0021Z" fill="#3F3D56"/>
<path d="M130.773 60.0705L133.1 59.7091C133.142 59.7026 133.18 59.6825 133.209 59.6519C133.239 59.6212 133.257 59.5818 133.262 59.5397C133.267 59.4919 133.288 59.4473 133.321 59.4126C133.354 59.3779 133.398 59.3551 133.445 59.3477L133.935 59.2716C134.002 59.2612 134.07 59.2656 134.135 59.2845C134.2 59.3034 134.26 59.3364 134.311 59.381C134.362 59.4256 134.403 59.4809 134.43 59.5429C134.457 59.6048 134.47 59.672 134.468 59.7397L134.217 70.1915C134.213 70.3212 134.163 70.4452 134.074 70.5399C133.985 70.6345 133.865 70.6932 133.736 70.7047L129.155 71.1119C129.097 71.1171 129.038 71.1096 128.982 71.09C128.927 71.0704 128.877 71.039 128.835 70.9981C128.793 70.9572 128.76 70.9077 128.739 70.853C128.717 70.7983 128.708 70.7397 128.712 70.6811L129.33 60.5109C129.339 60.361 129.399 60.2188 129.5 60.1078C129.601 59.9968 129.737 59.9237 129.886 59.9007L130.402 59.8204C130.421 59.9012 130.47 59.9718 130.539 60.0182C130.608 60.0646 130.691 60.0833 130.773 60.0705Z" fill="white"/>
<path d="M119.981 159.22L123.54 159.22L125.233 145.49L119.979 145.49L119.981 159.22Z" fill="#FFB8B8"/>
<path d="M130.405 162.525L119.218 162.526L119.218 158.203L126.083 158.203C126.65 158.203 127.212 158.315 127.737 158.532C128.261 158.749 128.738 159.067 129.139 159.469C129.541 159.87 129.859 160.346 130.076 160.871C130.294 161.395 130.405 161.957 130.405 162.525Z" fill="#2F2E41"/>
<path d="M109.04 159.22L112.6 159.22L114.293 145.49L109.039 145.49L109.04 159.22Z" fill="#FFB8B8"/>
<path d="M119.465 162.525L108.278 162.526L108.277 158.203L115.142 158.203C116.289 158.203 117.388 158.658 118.199 159.469C119.01 160.279 119.465 161.379 119.465 162.525Z" fill="#2F2E41"/>
<path d="M119.465 63.2933C123.689 63.2933 127.113 59.8693 127.113 55.6457C127.113 51.422 123.689 47.998 119.465 47.998C115.242 47.998 111.818 51.422 111.818 55.6457C111.818 59.8693 115.242 63.2933 119.465 63.2933Z" fill="#FFB8B8"/>
<path d="M123.401 76.1068C123.339 74.1406 122.785 72.2213 121.791 70.5238C120.797 68.8263 119.394 67.4045 117.709 66.3882C115.734 65.2239 113.571 64.7699 111.85 66.4904C110.817 67.5494 109.99 68.7912 109.411 70.1525C107.819 73.8621 107.715 78.0417 109.12 81.8259L113.215 93.1393L122.693 94.1661C122.871 94.1853 123.051 94.166 123.221 94.1094C123.391 94.0528 123.546 93.9602 123.677 93.8379C123.808 93.7157 123.911 93.5667 123.979 93.401C124.047 93.2354 124.078 93.057 124.071 92.8781L123.401 76.1068Z" fill="#2F2E41"/>
<path d="M113.816 91.7461C113.816 91.7461 106.735 94.3895 108.586 105.583C110.247 115.627 108.927 148.966 108.639 155.705C108.625 156.027 108.736 156.341 108.949 156.582C109.161 156.823 109.459 156.972 109.779 156.999L113.913 157.343C114.237 157.37 114.558 157.27 114.809 157.063C115.059 156.856 115.219 156.56 115.255 156.237L117.389 136.629C117.398 136.552 117.434 136.481 117.492 136.429C117.55 136.378 117.625 136.35 117.703 136.351C117.78 136.352 117.854 136.382 117.911 136.434C117.968 136.487 118.003 136.559 118.009 136.636L119.6 155.504C119.627 155.822 119.774 156.117 120.013 156.329C120.251 156.541 120.561 156.654 120.88 156.644L124.352 156.534C124.516 156.529 124.677 156.492 124.826 156.424C124.975 156.357 125.109 156.261 125.221 156.141C125.333 156.022 125.421 155.881 125.478 155.728C125.536 155.575 125.563 155.412 125.558 155.248L123.512 93.0535L113.816 91.7461Z" fill="#2F2E41"/>
<path d="M121 55.1419C123.558 56.1908 126.824 54.9655 128.061 52.493C129.297 50.0206 128.319 46.672 125.945 45.2547C123.572 43.8373 120.16 44.5638 118.569 46.8251C117.276 44.4946 113.887 43.9005 111.56 45.2009C109.234 46.5012 107.966 49.225 107.816 51.8862C107.666 54.5474 108.475 57.169 109.462 59.645C111.058 63.65 116.198 65.8065 120.174 64.1397C118.353 61.4285 118.713 57.461 121 55.1419Z" fill="#2F2E41"/>
<path d="M131.307 66.4349C131.239 66.435 131.173 66.413 131.118 66.3722L131.115 66.3696L130.404 65.8257C130.371 65.8004 130.343 65.769 130.322 65.733C130.302 65.6971 130.288 65.6574 130.283 65.6163C130.277 65.5752 130.28 65.5334 130.291 65.4933C130.301 65.4532 130.32 65.4156 130.345 65.3827C130.37 65.3497 130.402 65.3221 130.438 65.3013C130.474 65.2806 130.513 65.2671 130.555 65.2617C130.596 65.2562 130.637 65.2589 130.678 65.2697C130.718 65.2804 130.755 65.2989 130.788 65.3242L131.249 65.6773L132.337 64.2575C132.362 64.2246 132.394 64.1969 132.43 64.1762C132.466 64.1554 132.505 64.1419 132.546 64.1365C132.587 64.1311 132.629 64.1338 132.669 64.1445C132.709 64.1552 132.747 64.1737 132.78 64.199C132.846 64.25 132.89 64.3254 132.901 64.4084C132.912 64.4915 132.889 64.5755 132.839 64.642L131.558 66.3113C131.529 66.3497 131.491 66.3809 131.447 66.4022C131.404 66.4236 131.356 66.4346 131.307 66.4345L131.307 66.4349Z" fill="#3684A4"/>
<path d="M271.92 35H174.089C172.712 35.0012 171.392 35.5489 170.418 36.5226C169.444 37.4964 168.897 38.8167 168.895 40.1938V56.0484C168.897 57.4255 169.444 58.7459 170.418 59.7196C171.392 60.6934 172.712 61.2409 174.089 61.2422H271.92C273.297 61.2409 274.617 60.6934 275.591 59.7196C276.565 58.7459 277.113 57.4255 277.114 56.0484V40.1938C277.113 38.8167 276.565 37.4963 275.591 36.5226C274.617 35.5488 273.297 35.0012 271.92 35ZM276.567 56.0484C276.565 57.2804 276.075 58.4614 275.204 59.3325C274.333 60.2036 273.152 60.6937 271.92 60.6955H174.089C172.857 60.6937 171.676 60.2036 170.805 59.3325C169.934 58.4614 169.444 57.2804 169.442 56.0484V40.1938C169.444 38.9618 169.934 37.7808 170.805 36.9097C171.676 36.0386 172.857 35.5485 174.089 35.5467H271.92C273.152 35.5485 274.333 36.0386 275.204 36.9097C276.075 37.7808 276.565 38.9618 276.567 40.1938V56.0484Z" fill="#3F3D56"/>
<path d="M193.998 57.1607C192.21 57.1607 190.462 56.6305 188.976 55.6372C187.489 54.6439 186.33 53.2321 185.646 51.5803C184.962 49.9285 184.783 48.1109 185.132 46.3573C185.48 44.6038 186.341 42.993 187.606 41.7288C188.87 40.4645 190.481 39.6036 192.234 39.2548C193.988 38.906 195.805 39.085 197.457 39.7692C199.109 40.4534 200.521 41.612 201.514 43.0986C202.507 44.5852 203.038 46.333 203.038 48.1209C203.035 50.5175 202.082 52.8152 200.387 54.5099C198.692 56.2046 196.394 57.1579 193.998 57.1607Z" fill="#3684A4"/>
<path d="M258.572 55.5016H211.585C211.005 55.5016 210.449 55.2712 210.039 54.8611C209.629 54.451 209.398 53.8948 209.398 53.3148C209.398 52.7348 209.629 52.1786 210.039 51.7685C210.449 51.3583 211.005 51.1279 211.585 51.1279H258.572C259.152 51.1279 259.708 51.3583 260.118 51.7685C260.528 52.1786 260.759 52.7348 260.759 53.3148C260.759 53.8948 260.528 54.451 260.118 54.8611C259.708 55.2712 259.152 55.5016 258.572 55.5016Z" fill="#CCCCCC"/>
<path d="M227.136 46.2077H211.585C211.005 46.2077 210.449 45.9773 210.039 45.5672C209.629 45.1571 209.398 44.6008 209.398 44.0208C209.398 43.4408 209.629 42.8846 210.039 42.4745C210.449 42.0644 211.005 41.834 211.585 41.834H227.136C227.716 41.834 228.272 42.0644 228.682 42.4745C229.092 42.8846 229.323 43.4408 229.323 44.0208C229.323 44.6008 229.092 45.1571 228.682 45.5672C228.272 45.9773 227.716 46.2077 227.136 46.2077Z" fill="#CCCCCC"/>
<path d="M193.536 51.3006C193.312 51.301 193.093 51.2285 192.914 51.0939L192.903 51.0856L190.56 49.2932C190.451 49.2101 190.36 49.1064 190.291 48.988C190.223 48.8696 190.178 48.7388 190.16 48.6031C190.142 48.4674 190.151 48.3295 190.186 48.1973C190.221 48.065 190.282 47.941 190.366 47.8324C190.449 47.7238 190.553 47.6327 190.671 47.5642C190.79 47.4958 190.921 47.4514 191.057 47.4336C191.192 47.4157 191.33 47.4249 191.462 47.4604C191.595 47.4959 191.718 47.5572 191.827 47.6406L193.345 48.8044L196.931 44.1258C197.014 44.0173 197.118 43.9263 197.236 43.8579C197.354 43.7895 197.485 43.7451 197.62 43.7272C197.756 43.7093 197.894 43.7183 198.026 43.7536C198.158 43.7889 198.281 43.8499 198.39 43.9331L198.39 43.9333L198.368 43.9642L198.391 43.9333C198.61 44.1015 198.753 44.3496 198.789 44.6232C198.825 44.8969 198.751 45.1736 198.583 45.3928L194.365 50.8934C194.268 51.0201 194.142 51.1227 193.999 51.1931C193.855 51.2635 193.697 51.2999 193.537 51.2994L193.536 51.3006Z" fill="white"/>
<path d="M229.885 77.6577H132.054C130.677 77.659 129.357 78.2066 128.383 79.1803C127.409 80.1541 126.861 81.4744 126.86 82.8515V98.7061C126.861 100.083 127.409 101.404 128.383 102.377C129.357 103.351 130.677 103.899 132.054 103.9H229.885C231.262 103.899 232.582 103.351 233.556 102.377C234.53 101.404 235.077 100.083 235.079 98.7061V82.8515C235.077 81.4744 234.53 80.1541 233.556 79.1803C232.582 78.2066 231.262 77.659 229.885 77.6577Z" fill="white"/>
<path d="M229.885 77.6577H132.054C130.677 77.659 129.357 78.2066 128.383 79.1803C127.409 80.1541 126.861 81.4744 126.86 82.8515V98.7061C126.861 100.083 127.409 101.404 128.383 102.377C129.357 103.351 130.677 103.899 132.054 103.9H229.885C231.262 103.899 232.582 103.351 233.556 102.377C234.53 101.404 235.077 100.083 235.079 98.7061V82.8515C235.077 81.4744 234.53 80.1541 233.556 79.1803C232.582 78.2066 231.262 77.659 229.885 77.6577ZM234.532 98.7061C234.53 99.9381 234.04 101.119 233.169 101.99C232.298 102.861 231.117 103.351 229.885 103.353H132.054C130.822 103.351 129.641 102.861 128.77 101.99C127.899 101.119 127.409 99.9381 127.407 98.7061V82.8515C127.409 81.6195 127.899 80.4386 128.77 79.5674C129.641 78.6963 130.822 78.2062 132.054 78.2044H229.885C231.117 78.2062 232.298 78.6963 233.169 79.5674C234.04 80.4386 234.53 81.6195 234.532 82.8515V98.7061Z" fill="#3F3D56"/>
<path d="M151.963 99.8189C150.175 99.8189 148.427 99.2887 146.94 98.2954C145.454 97.3021 144.295 95.8903 143.611 94.2385C142.927 92.5867 142.748 90.7691 143.096 89.0155C143.445 87.262 144.306 85.6512 145.57 84.387C146.835 83.1227 148.445 82.2618 150.199 81.913C151.953 81.5642 153.77 81.7432 155.422 82.4274C157.074 83.1116 158.486 84.2702 159.479 85.7568C160.472 87.2434 161.002 88.9912 161.002 90.7791C161 93.1757 160.046 95.4734 158.352 97.1681C156.657 98.8629 154.359 99.8161 151.963 99.8189Z" fill="#3684A4"/>
<path d="M216.537 98.1598H169.55C168.97 98.1598 168.414 97.9294 168.004 97.5193C167.594 97.1092 167.363 96.553 167.363 95.973C167.363 95.393 167.594 94.8368 168.004 94.4267C168.414 94.0165 168.97 93.7861 169.55 93.7861H216.537C217.117 93.7861 217.673 94.0165 218.083 94.4267C218.493 94.8368 218.724 95.393 218.724 95.973C218.724 96.553 218.493 97.1092 218.083 97.5193C217.673 97.9294 217.117 98.1598 216.537 98.1598Z" fill="#CCCCCC"/>
<path d="M185.101 88.8654H169.55C169.263 88.8654 168.978 88.8088 168.713 88.6989C168.448 88.589 168.207 88.428 168.004 88.2249C167.801 88.0218 167.64 87.7807 167.53 87.5154C167.42 87.2501 167.363 86.9657 167.363 86.6785C167.363 86.3914 167.42 86.107 167.53 85.8417C167.64 85.5764 167.801 85.3353 168.004 85.1322C168.207 84.9292 168.448 84.7681 168.713 84.6582C168.978 84.5483 169.263 84.4917 169.55 84.4917H185.101C185.681 84.4917 186.237 84.7221 186.647 85.1322C187.057 85.5423 187.288 86.0986 187.288 86.6785C187.288 87.2585 187.057 87.8148 186.647 88.2249C186.237 88.635 185.681 88.8654 185.101 88.8654Z" fill="#CCCCCC"/>
<path d="M151.501 93.9588C151.277 93.9592 151.058 93.8867 150.879 93.7521L150.868 93.7438L148.525 91.9514C148.416 91.8683 148.325 91.7646 148.256 91.6462C148.187 91.5278 148.143 91.397 148.125 91.2613C148.107 91.1256 148.116 90.9877 148.151 90.8555C148.186 90.7232 148.247 90.5992 148.331 90.4906C148.414 90.382 148.518 90.2909 148.636 90.2224C148.755 90.154 148.886 90.1096 149.021 90.0918C149.157 90.0739 149.295 90.0831 149.427 90.1186C149.559 90.1541 149.683 90.2154 149.792 90.2988L151.309 91.4626L154.896 86.784C154.979 86.6756 155.082 86.5845 155.201 86.5161C155.319 86.4477 155.45 86.4033 155.585 86.3854C155.721 86.3675 155.858 86.3765 155.99 86.4118C156.122 86.4471 156.246 86.5081 156.355 86.5913L156.355 86.5915L156.333 86.6224L156.356 86.5915C156.574 86.7597 156.718 87.0078 156.754 87.2814C156.79 87.5551 156.716 87.8318 156.548 88.051L152.33 93.5516C152.232 93.6783 152.107 93.7809 151.963 93.8513C151.82 93.9217 151.662 93.9581 151.502 93.9576L151.501 93.9588Z" fill="white"/>
<path d="M128.882 81.2345C128.488 81.0683 128.064 80.9902 127.637 81.0059C127.211 81.0215 126.793 81.1305 126.413 81.3252C126.033 81.5199 125.7 81.7954 125.438 82.1325C125.177 82.4696 124.992 82.86 124.897 83.2763L118.321 84.4028L118.031 88.5662L127.295 86.8448C128.005 86.9574 128.732 86.8058 129.337 86.4187C129.943 86.0315 130.385 85.4357 130.58 84.7442C130.776 84.0526 130.711 83.3134 130.398 82.6666C130.085 82.0197 129.545 81.5102 128.882 81.2345Z" fill="#FFB8B8"/>
<path d="M117.585 69.2844C118.538 69.7125 119.29 70.4909 119.684 71.4583C120.078 72.4256 120.085 73.5077 119.703 74.4799L115.891 84.1829L120.677 83.3033C120.976 83.2484 121.284 83.3046 121.545 83.4614C121.805 83.6181 121.999 83.8646 122.09 84.1544L123.044 87.1862C123.094 87.3446 123.112 87.5114 123.096 87.6767C123.08 87.842 123.032 88.0026 122.953 88.1489C122.875 88.2952 122.768 88.4244 122.639 88.5287C122.51 88.6331 122.361 88.7106 122.201 88.7567L115.981 90.5527C115.194 90.7799 114.366 90.8216 113.56 90.6746C112.754 90.5275 111.994 90.1958 111.338 89.7053C110.682 89.2149 110.149 88.5791 109.78 87.8479C109.411 87.1166 109.217 86.3098 109.212 85.4909C109.21 85.1082 109.249 84.7264 109.329 84.3522L111.943 72.1421C112.07 71.5492 112.328 70.9922 112.698 70.5118C113.068 70.0315 113.541 69.6399 114.082 69.366C114.623 69.092 115.218 68.9425 115.824 68.9283C116.43 68.9142 117.032 69.0359 117.585 69.2844Z" fill="#CCCCCC"/>
</g>
<defs>
<clipPath id="clip0_8299_450">
<rect width="178.78" height="128" fill="white" transform="translate(98.3334 35)"/>
</clipPath>
</defs>
</svg>
