<svg width="56" height="57" viewBox="0 0 56 57" fill="none" xmlns="http://www.w3.org/2000/svg">
<rect x="-0.00500488" y="0.10498" width="56" height="56" rx="28" fill="#EAECF0"/>
<path d="M27.995 14.7717V16.1051M15.995 28.1051H14.6617M19.3283 19.4384L18.5282 18.6383M36.6617 19.4384L37.462 18.6383M41.3283 28.1051H39.995M25.3283 30.1051H30.6617M27.995 30.1051V36.7717M32.6617 34.6037C34.6804 33.1514 35.995 30.7818 35.995 28.1051C35.995 23.6868 32.4133 20.1051 27.995 20.1051C23.5767 20.1051 19.995 23.6868 19.995 28.1051C19.995 30.7818 21.3096 33.1514 23.3283 34.6037V37.1717C23.3283 38.6652 23.3283 39.4119 23.619 39.9824C23.8746 40.4841 24.2826 40.8921 24.7844 41.1477C25.3548 41.4384 26.1015 41.4384 27.595 41.4384H28.395C29.8885 41.4384 30.6352 41.4384 31.2056 41.1477C31.7074 40.8921 32.1154 40.4841 32.371 39.9824C32.6617 39.4119 32.6617 38.6652 32.6617 37.1717V34.6037Z" stroke="#3684A4" stroke-width="2" stroke-linecap="round" stroke-linejoin="round"/>
</svg>
