<svg width="23" height="22" viewBox="0 0 23 22" fill="none" xmlns="http://www.w3.org/2000/svg">
<path d="M5.77397 7.41211H1.32404V21.7562H5.77397V7.41211Z" fill="white"/>
<path d="M3.53932 5.53585C4.06495 5.53998 4.57997 5.38832 5.01904 5.10011C5.4581 4.81189 5.80139 4.40011 6.00541 3.91702C6.20944 3.43392 6.265 2.90127 6.165 2.38665C6.06499 1.87203 5.81394 1.39864 5.44372 1.02652C5.0735 0.6544 4.60082 0.400323 4.08558 0.296531C3.57034 0.192738 3.03579 0.243893 2.54975 0.443527C2.06372 0.643162 1.64807 0.982268 1.3556 1.41782C1.06312 1.85338 0.906958 2.36576 0.906942 2.88995C0.905568 3.23605 0.972596 3.57903 1.10414 3.89931C1.23569 4.21958 1.42918 4.51089 1.67361 4.75659C1.91805 5.00228 2.2086 5.19754 2.52871 5.33125C2.84883 5.46496 3.19226 5.53449 3.53932 5.53585Z" fill="white"/>
<path d="M12.9089 14.2356C12.9089 12.2147 13.8386 11.0168 15.6144 11.0168C17.3901 11.0168 18.0483 12.173 18.0483 14.2356V21.7462H22.5295V12.6835C22.5295 8.83961 20.3463 6.9854 17.3066 6.9854C16.4408 6.97271 15.5864 7.18386 14.8267 7.59825C14.067 8.01264 13.4278 8.61617 12.9715 9.35006V7.42293H8.63654V21.7462H12.9089V14.2356Z" fill="white"/>
</svg>
