<svg width="56" height="57" viewBox="0 0 56 57" fill="none" xmlns="http://www.w3.org/2000/svg">
<rect x="-0.00500488" y="0.10498" width="56" height="56" rx="28" fill="#EAECF0"/>
<path d="M39.995 24.105L39.995 16.105M39.995 16.105H31.995M39.995 16.105L29.3283 26.7716M25.3283 18.7716H22.395C20.1548 18.7716 19.0347 18.7716 18.179 19.2076C17.4264 19.5911 16.8145 20.203 16.431 20.9557C15.995 21.8113 15.995 22.9314 15.995 25.1716V33.705C15.995 35.9452 15.995 37.0653 16.431 37.9209C16.8145 38.6736 17.4264 39.2855 18.179 39.669C19.0347 40.105 20.1548 40.105 22.395 40.105H30.9283C33.1685 40.105 34.2886 40.105 35.1443 39.669C35.8969 39.2855 36.5089 38.6736 36.8924 37.9209C37.3283 37.0653 37.3283 35.9452 37.3283 33.705V30.7716" stroke="#3684A4" stroke-width="2" stroke-linecap="round" stroke-linejoin="round"/>
</svg>
