<svg width="75" height="74" viewBox="0 0 75 74" fill="none" xmlns="http://www.w3.org/2000/svg">
<rect x="0.666718" width="74" height="74" rx="37" fill="#EAECF0"/>
<path d="M32.3334 41V43.6667M37.6667 35.6667V43.6667M43.0001 30.3333V43.6667M32.0667 49H43.2667C45.5069 49 46.627 49 47.4827 48.564C48.2353 48.1805 48.8473 47.5686 49.2307 46.816C49.6667 45.9603 49.6667 44.8402 49.6667 42.6V31.4C49.6667 29.1598 49.6667 28.0397 49.2307 27.184C48.8473 26.4314 48.2353 25.8195 47.4827 25.436C46.627 25 45.5069 25 43.2667 25H32.0667C29.8265 25 28.7064 25 27.8508 25.436C27.0981 25.8195 26.4862 26.4314 26.1027 27.184C25.6667 28.0397 25.6667 29.1598 25.6667 31.4V42.6C25.6667 44.8402 25.6667 45.9603 26.1027 46.816C26.4862 47.5686 27.0981 48.1805 27.8508 48.564C28.7064 49 29.8265 49 32.0667 49Z" stroke="#6F7784" stroke-width="2" stroke-linecap="round" stroke-linejoin="round"/>
</svg>
