<svg width="50" height="50" viewBox="0 0 50 50" fill="none" xmlns="http://www.w3.org/2000/svg">
<g clip-path="url(#clip0_3018_6489)">
<path d="M16.5964 24.5224C16.6601 24.3687 16.7521 24.2303 16.8679 24.1148L26.1164 15.8664C26.6007 15.3984 27.3687 15.3984 27.8531 15.8664C28.3496 16.3459 28.3634 17.1373 27.8838 17.6338L20.7674 23.75H31.25C31.9403 23.75 32.5 24.3097 32.5 25C32.5 25.6903 31.9403 26.25 31.25 26.25H20.7674L27.8838 33.3662C28.1182 33.6006 28.2498 33.9184 28.2498 34.2498C28.25 34.9402 27.6903 35.4998 27 35.5C26.6684 35.5003 26.3504 35.3686 26.1164 35.1338L16.867 25.8844C16.7513 25.7689 16.6599 25.6306 16.5964 25.4773C16.5366 25.3322 16.5079 25.1787 16.5049 25.0243C16.5047 25.0157 16.5 25.0085 16.5 25C16.5 24.994 16.5032 24.989 16.5034 24.9831C16.5055 24.8262 16.5356 24.6696 16.5964 24.5224ZM25 0C38.8071 0 50 11.1929 50 25C50 38.8071 38.8071 50 25 50C11.1996 49.9838 0.0161743 38.8004 0 25C0 11.1929 11.1929 0 25 0ZM25 47.5C37.4265 47.5 47.5 37.4265 47.5 25C47.5 12.5735 37.4265 2.5 25 2.5C12.5793 2.51404 2.51404 12.5793 2.5 25C2.5 37.4265 12.5735 47.5 25 47.5Z" fill="#D0D5DD"/>
</g>
<defs>
<clipPath id="clip0_3018_6489">
<rect width="50" height="50" fill="white" transform="matrix(-1 0 0 1 50 0)"/>
</clipPath>
</defs>
</svg>
