<svg width="50" height="50" viewBox="0 0 50 50" fill="none" xmlns="http://www.w3.org/2000/svg">
<g clip-path="url(#clip0_3018_6491)">
<path d="M33.4036 24.5224C33.3399 24.3687 33.2479 24.2303 33.1321 24.1148L23.8836 15.8664C23.3993 15.3984 22.6313 15.3984 22.1469 15.8664C21.6504 16.3459 21.6366 17.1373 22.1162 17.6338L29.2326 23.75H18.75C18.0597 23.75 17.5 24.3097 17.5 25C17.5 25.6903 18.0597 26.25 18.75 26.25H29.2326L22.1162 33.3662C21.8818 33.6006 21.7502 33.9184 21.7502 34.2498C21.75 34.9402 22.3097 35.4998 23 35.5C23.3316 35.5003 23.6496 35.3686 23.8836 35.1338L33.133 25.8844C33.2487 25.7689 33.3401 25.6306 33.4036 25.4773C33.4634 25.3322 33.4921 25.1787 33.4951 25.0243C33.4953 25.0157 33.5 25.0085 33.5 25C33.5 24.994 33.4968 24.989 33.4966 24.9831C33.4945 24.8262 33.4644 24.6696 33.4036 24.5224ZM25 0C11.1929 0 0 11.1929 0 25C0 38.8071 11.1929 50 25 50C38.8004 49.9838 49.9838 38.8004 50 25C50 11.1929 38.8071 0 25 0ZM25 47.5C12.5735 47.5 2.5 37.4265 2.5 25C2.5 12.5735 12.5735 2.5 25 2.5C37.4207 2.51404 47.486 12.5793 47.5 25C47.5 37.4265 37.4265 47.5 25 47.5Z" fill="#3684A4"/>
</g>
<defs>
<clipPath id="clip0_3018_6491">
<rect width="50" height="50" fill="white"/>
</clipPath>
</defs>
</svg>
