<svg width="56" height="57" viewBox="0 0 56 57" fill="none" xmlns="http://www.w3.org/2000/svg">
<rect x="0.00500488" y="0.10498" width="56" height="56" rx="28" fill="#EAECF0"/>
<path d="M27.0485 16.7093C27.3558 16.0867 27.5095 15.7754 27.7181 15.676C27.8996 15.5895 28.1104 15.5895 28.2919 15.676C28.5005 15.7754 28.6542 16.0867 28.9615 16.7093L31.8771 22.6159C31.9678 22.7997 32.0132 22.8916 32.0795 22.963C32.1382 23.0262 32.2086 23.0774 32.2868 23.1137C32.3751 23.1548 32.4765 23.1696 32.6793 23.1993L39.201 24.1525C39.8877 24.2529 40.2311 24.3031 40.39 24.4708C40.5283 24.6168 40.5933 24.8173 40.567 25.0166C40.5368 25.2457 40.2882 25.4878 39.791 25.9721L35.0736 30.5668C34.9265 30.71 34.853 30.7816 34.8056 30.8668C34.7636 30.9423 34.7366 31.0252 34.7262 31.1109C34.7145 31.2077 34.7318 31.3089 34.7665 31.5112L35.8796 38.0011C35.997 38.6856 36.0557 39.0278 35.9454 39.2309C35.8494 39.4076 35.6788 39.5315 35.4811 39.5682C35.2538 39.6103 34.9465 39.4487 34.3318 39.1254L28.5015 36.0593C28.3198 35.9638 28.229 35.916 28.1333 35.8973C28.0486 35.8807 27.9614 35.8807 27.8767 35.8973C27.781 35.916 27.6902 35.9638 27.5085 36.0593L21.6782 39.1254C21.0635 39.4487 20.7562 39.6103 20.529 39.5682C20.3312 39.5315 20.1606 39.4076 20.0646 39.2309C19.9543 39.0278 20.013 38.6856 20.1304 38.0011L21.2435 31.5112C21.2782 31.3089 21.2956 31.2077 21.2838 31.1109C21.2734 31.0252 21.2465 30.9423 21.2045 30.8668C21.157 30.7816 21.0835 30.71 20.9364 30.5668L16.2191 25.9721C15.7219 25.4878 15.4733 25.2457 15.443 25.0166C15.4167 24.8173 15.4817 24.6168 15.62 24.4708C15.7789 24.3031 16.1223 24.2529 16.8091 24.1525L23.3307 23.1993C23.5336 23.1696 23.635 23.1548 23.7233 23.1137C23.8015 23.0774 23.8719 23.0262 23.9306 22.963C23.9969 22.8916 24.0422 22.7997 24.133 22.6159L27.0485 16.7093Z" stroke="#3684A4" stroke-width="2" stroke-linecap="round" stroke-linejoin="round"/>
</svg>
