<svg width="40" height="40" viewBox="0 0 40 40" fill="none" xmlns="http://www.w3.org/2000/svg">
<path fill-rule="evenodd" clip-rule="evenodd" d="M26.8957 7.88008L29.9457 10.9301C34.4273 15.4134 36.6673 17.6534 36.6673 20.4368C36.6673 23.2218 34.4273 25.4618 29.9457 29.9434C25.4623 34.4268 23.2223 36.6668 20.4373 36.6668C17.654 36.6668 15.4123 34.4268 10.9307 29.9451L7.88067 26.8951C5.30567 24.3184 4.01734 23.0317 3.53901 21.3601C3.05901 19.6884 3.46901 17.9134 4.28901 14.3651L4.76067 12.3184C5.44901 9.33175 5.79401 7.83842 6.81567 6.81508C7.83734 5.79175 9.33234 5.44842 12.319 4.76008L14.3657 4.28675C17.9157 3.46842 19.689 3.05842 21.3607 3.53675C23.0323 4.01675 24.3207 5.30508 26.8957 7.88008ZM18.5773 23.8801C17.4557 22.7601 17.464 21.1501 18.1357 19.8751C17.9694 19.6349 17.8925 19.3441 17.9183 19.0531C17.9441 18.7621 18.071 18.4894 18.277 18.2822C18.4829 18.0751 18.755 17.9466 19.0458 17.9191C19.3366 17.8916 19.6279 17.9669 19.869 18.1318C20.4357 17.8317 21.0573 17.6718 21.6773 17.6784C22.0089 17.6815 22.3256 17.8162 22.5578 18.0528C22.79 18.2894 22.9188 18.6086 22.9157 18.9401C22.9126 19.2716 22.7779 19.5883 22.5413 19.8205C22.3047 20.0528 21.9855 20.1815 21.654 20.1784C21.2681 20.1927 20.9034 20.3586 20.639 20.6401C19.994 21.2851 20.1623 21.9317 20.344 22.1134C20.5273 22.2951 21.1723 22.4634 21.8173 21.8184C23.124 20.5117 25.3807 20.0784 26.8257 21.5234C27.9473 22.6451 27.939 24.2551 27.2673 25.5301C27.4326 25.7703 27.5086 26.0607 27.4823 26.3511C27.4561 26.6415 27.3291 26.9136 27.1234 27.1202C26.9178 27.3269 26.6463 27.4551 26.3561 27.4828C26.0658 27.5105 25.775 27.4358 25.534 27.2718C24.7861 27.6821 23.9185 27.8188 23.0807 27.6584C22.7558 27.5917 22.4707 27.3986 22.2882 27.1217C22.1056 26.8447 22.0406 26.5066 22.1073 26.1817C22.1741 25.8569 22.3672 25.5718 22.6441 25.3893C22.921 25.2067 23.2591 25.1417 23.584 25.2084C23.879 25.2701 24.3557 25.1734 24.764 24.7651C25.409 24.1184 25.2407 23.4734 25.059 23.2918C24.8757 23.1101 24.2307 22.9418 23.5857 23.5868C22.279 24.8934 20.0223 25.3267 18.5773 23.8801ZM16.7007 17.1551C17.0102 16.8455 17.2556 16.478 17.4231 16.0735C17.5905 15.6691 17.6767 15.2356 17.6766 14.7978C17.6765 14.3601 17.5902 13.9266 17.4226 13.5222C17.255 13.1178 17.0094 12.7504 16.6998 12.4409C16.3902 12.1314 16.0227 11.886 15.6183 11.7185C15.2138 11.5511 14.7803 11.4649 14.3426 11.465C13.9048 11.4651 13.4714 11.5514 13.067 11.719C12.6626 11.8866 12.2952 12.1322 11.9857 12.4418C11.3606 13.067 11.0096 13.9149 11.0098 14.799C11.0099 15.6831 11.3613 16.5309 11.9865 17.1559C12.6118 17.7809 13.4597 18.132 14.3438 18.1318C15.2278 18.1317 16.0756 17.7803 16.7007 17.1551Z" fill="#344054"/>
</svg>
