<svg width="56" height="57" viewBox="0 0 56 57" fill="none" xmlns="http://www.w3.org/2000/svg">
<rect y="0.10498" width="56" height="56" rx="28" fill="#EAECF0"/>
<path d="M34.6667 40.105L28 34.7716L21.3333 40.105M21.0667 34.7716H34.9333C37.1735 34.7716 38.2936 34.7716 39.1493 34.3357C39.9019 33.9522 40.5139 33.3403 40.8973 32.5876C41.3333 31.732 41.3333 30.6119 41.3333 28.3716V22.505C41.3333 20.2648 41.3333 19.1447 40.8973 18.289C40.5139 17.5364 39.9019 16.9244 39.1493 16.541C38.2936 16.105 37.1735 16.105 34.9333 16.105H21.0667C18.8264 16.105 17.7063 16.105 16.8507 16.541C16.098 16.9244 15.4861 17.5364 15.1026 18.289C14.6667 19.1447 14.6667 20.2648 14.6667 22.505V28.3716C14.6667 30.6119 14.6667 31.732 15.1026 32.5876C15.4861 33.3403 16.098 33.9522 16.8507 34.3357C17.7063 34.7716 18.8264 34.7716 21.0667 34.7716Z" stroke="#3684A4" stroke-width="2" stroke-linecap="round" stroke-linejoin="round"/>
</svg>
