<svg width="56" height="57" viewBox="0 0 56 57" fill="none" xmlns="http://www.w3.org/2000/svg">
<rect x="-0.00500488" y="0.10498" width="56" height="56" rx="28" fill="#EAECF0"/>
<path d="M41.3283 40.105V37.4383C41.3283 34.9532 39.6286 32.8651 37.3283 32.273M32.6617 16.4927C34.6162 17.2838 35.995 19.2001 35.995 21.4383C35.995 23.6766 34.6162 25.5928 32.6617 26.384M34.6617 40.105C34.6617 37.62 34.6617 36.3774 34.2557 35.3973C33.7144 34.0905 32.6761 33.0523 31.3693 32.511C30.3892 32.105 29.1467 32.105 26.6617 32.105H22.6617C20.1766 32.105 18.9341 32.105 17.954 32.511C16.6472 33.0523 15.6089 34.0905 15.0676 35.3973C14.6617 36.3774 14.6617 37.62 14.6617 40.105M29.995 21.4383C29.995 24.3838 27.6072 26.7716 24.6617 26.7716C21.7161 26.7716 19.3283 24.3838 19.3283 21.4383C19.3283 18.4928 21.7161 16.105 24.6617 16.105C27.6072 16.105 29.995 18.4928 29.995 21.4383Z" stroke="#3684A4" stroke-width="2" stroke-linecap="round" stroke-linejoin="round"/>
</svg>
