<svg width="74" height="74" viewBox="0 0 74 74" fill="none" xmlns="http://www.w3.org/2000/svg">
<rect width="74" height="74" rx="37" fill="#EAECF0"/>
<path d="M42.3334 27.6666L45 30.3333L50.3334 25M50.3334 37V43.9333C50.3334 46.1735 50.3334 47.2936 49.8974 48.1493C49.5139 48.9019 48.902 49.5138 48.1493 49.8973C47.2937 50.3333 46.1736 50.3333 43.9334 50.3333H30.0667C27.8265 50.3333 26.7064 50.3333 25.8507 49.8973C25.0981 49.5138 24.4862 48.9019 24.1027 48.1493C23.6667 47.2936 23.6667 46.1735 23.6667 43.9333V30.0666C23.6667 27.8264 23.6667 26.7063 24.1027 25.8507C24.4862 25.098 25.0981 24.4861 25.8507 24.1026C26.7064 23.6666 27.8265 23.6666 30.0667 23.6666H37M23.8607 47.5684C24.4862 45.3181 26.5501 43.6666 28.9997 43.6666H38.333C39.5721 43.6666 40.1917 43.6666 40.7069 43.7691C42.8225 44.1899 44.4764 45.8438 44.8972 47.9595C44.9997 48.4747 44.9997 49.0942 44.9997 50.3333M39.6667 33.6666C39.6667 36.6121 37.2789 39 34.3334 39C31.3878 39 29 36.6121 29 33.6666C29 30.7211 31.3878 28.3333 34.3334 28.3333C37.2789 28.3333 39.6667 30.7211 39.6667 33.6666Z" stroke="#6F7784" stroke-width="2" stroke-linecap="round" stroke-linejoin="round"/>
</svg>
