<svg width="56" height="57" viewBox="0 0 56 57" fill="none" xmlns="http://www.w3.org/2000/svg">
<rect x="-0.00500488" y="0.10498" width="56" height="56" rx="28" fill="#EAECF0"/>
<path d="M32.0623 24.105H19.3283C17.4874 24.105 15.995 22.6126 15.995 20.7716C15.995 18.9307 17.4874 17.4383 19.3283 17.4383H32.0623M23.9276 38.7716H36.6617C38.5026 38.7716 39.995 37.2793 39.995 35.4383C39.995 33.5974 38.5026 32.105 36.6617 32.105H23.9276M15.995 35.4383C15.995 38.0156 18.0843 40.105 20.6617 40.105C23.239 40.105 25.3283 38.0156 25.3283 35.4383C25.3283 32.861 23.239 30.7716 20.6617 30.7716C18.0843 30.7716 15.995 32.861 15.995 35.4383ZM39.995 20.7716C39.995 23.349 37.9057 25.4383 35.3283 25.4383C32.751 25.4383 30.6617 23.349 30.6617 20.7716C30.6617 18.1943 32.751 16.105 35.3283 16.105C37.9057 16.105 39.995 18.1943 39.995 20.7716Z" stroke="#3684A4" stroke-width="2" stroke-linecap="round" stroke-linejoin="round"/>
</svg>
